<?xml version="1.0" encoding="utf-8"?>
<!-- Generator: Adobe Illustrator 22.1.0, SVG Export Plug-In . SVG Version: 6.00 Build 0)  -->
<svg version="1.0" id="Layer_1" xmlns="http://www.w3.org/2000/svg" xmlns:xlink="http://www.w3.org/1999/xlink" x="0px" y="0px"
	 viewBox="0 0 150 140" style="enable-background:new 0 0 150 140;" xml:space="preserve">
<style type="text/css">
	.st0{fill:#A5C715;}
	.st1{fill:#FFFFFF;}
	.st2{fill:#1D1D1B;}
	.st3{fill:none;stroke:#1D1D1B;stroke-width:1.6287;stroke-linecap:round;stroke-miterlimit:10;}
	.st4{fill:none;stroke:#1D1D1B;stroke-width:1.6287;stroke-miterlimit:10;}
	.st5{fill:none;stroke:#1D1D1B;stroke-width:1.2605;stroke-linecap:round;stroke-miterlimit:10;}
	.st6{fill:none;stroke:#1D1D1B;stroke-width:1.2605;stroke-miterlimit:10;}
	.st7{fill:none;stroke:#1D1D1B;stroke-width:1.2591;stroke-linecap:round;stroke-miterlimit:10;}
	.st8{fill:none;stroke:#1D1D1B;stroke-width:1.2458;stroke-miterlimit:10;}
	.st9{fill:none;stroke:#1D1D1B;stroke-width:0.7019;stroke-miterlimit:10;}
	.st10{fill:#FFFFFF;stroke:#1D1D1B;stroke-width:1.4273;stroke-miterlimit:10;}
	.st11{fill:none;stroke:#1D1D1B;stroke-width:1.3648;stroke-miterlimit:10;}
	.st12{fill:none;stroke:#1D1D1B;stroke-width:1.4273;stroke-miterlimit:10;}
	.st13{fill:#FFFFFF;stroke:#1D1D1B;stroke-width:1.4273;stroke-linejoin:round;stroke-miterlimit:10;}
	.st14{fill:#FFFFFF;stroke:#1D1D1B;stroke-width:1.4273;stroke-linecap:round;stroke-linejoin:round;stroke-miterlimit:10;}
	.st15{fill:#FFFFFF;stroke:#1D1D1B;stroke-width:1.6;stroke-linecap:round;stroke-miterlimit:10;}
	.st16{fill:#FFFFFF;stroke:#1D1D1B;stroke-width:1.819;stroke-miterlimit:10;}
	.st17{fill:#FFFFFF;stroke:#1D1D1B;stroke-width:1.819;stroke-linecap:round;stroke-linejoin:round;stroke-miterlimit:10;}
	.st18{fill:none;stroke:#1D1D1B;stroke-width:1.819;stroke-linecap:round;stroke-linejoin:round;stroke-miterlimit:10;}
	.st19{fill:none;stroke:#1D1D1B;stroke-width:1.819;stroke-linejoin:round;stroke-miterlimit:10;}
	.st20{fill:none;stroke:#1D1D1B;stroke-width:1.819;stroke-miterlimit:10;}
	.st21{fill:none;stroke:#1D1D1B;stroke-width:1.4273;stroke-linecap:round;stroke-linejoin:round;stroke-miterlimit:10;}
	.st22{fill:none;stroke:#1D1D1B;stroke-width:1.4273;stroke-linecap:round;stroke-miterlimit:10;}
	.st23{fill:#A5C715;stroke:#1D1D1B;stroke-width:1.5;stroke-miterlimit:10;}
	.st24{fill:none;stroke:#1D1D1B;stroke-width:1.4273;stroke-linejoin:round;stroke-miterlimit:10;}
</style>
<g>
	<g>
		<path class="st0" d="M33.2,105.7c-1.6,0-3.2-0.8-4.1-2.2c-5.7-8.4-8.7-18.2-8.7-28.4c0-28,22.8-50.8,50.8-50.8
			s50.8,22.8,50.8,50.8c0,10.2-3,20-8.7,28.4c-1.5,2.3-4.6,2.9-6.9,1.3c-2.3-1.5-2.9-4.6-1.3-6.9c4.6-6.7,7-14.6,7-22.8
			c0-22.5-18.3-40.9-40.9-40.9S30.3,52.6,30.3,75.1c0,8.2,2.4,16.1,7,22.8c1.5,2.3,0.9,5.3-1.3,6.9
			C35.1,105.4,34.1,105.7,33.2,105.7z"/>
	</g>
	<g>
		<path class="st0" d="M71.2,47.5c-2.7,0-5-2.2-5-5V31.8c0-2.7,2.2-5,5-5s5,2.2,5,5v10.7C76.1,45.2,73.9,47.5,71.2,47.5z"/>
	</g>
	<g>
		<path class="st0" d="M37.7,65c-0.5,0-1.1-0.1-1.6-0.4l-6.4-3.1c-1.9-0.9-2.6-3.1-1.8-4.9c0.9-1.9,3.1-2.6,4.9-1.8l6.4,3.1
			c1.9,0.9,2.6,3.1,1.8,4.9C40.5,64.2,39.1,65,37.7,65z"/>
	</g>
	<g>
		<path class="st0" d="M104.4,65c-1.4,0-2.7-0.8-3.4-2.1c-0.9-1.9-0.1-4.1,1.8-4.9l6.4-3.1c1.9-0.9,4.1-0.1,4.9,1.8
			c0.9,1.9,0.1,4.1-1.8,4.9l-6.4,3.1C105.5,64.9,105,65,104.4,65z"/>
	</g>
	<g>
		<path class="st0" d="M107.6,106.5c-0.8,0-1.7-0.2-2.5-0.7l-9.3-5.3c-2.4-1.4-3.2-4.4-1.8-6.8c1.4-2.4,4.4-3.2,6.8-1.8l9.3,5.3
			c2.4,1.4,3.2,4.4,1.8,6.8C111,105.6,109.4,106.5,107.6,106.5z"/>
	</g>
	<g>
		<path class="st0" d="M33.9,106.5c-1.7,0-3.4-0.9-4.3-2.5c-1.4-2.4-0.5-5.4,1.8-6.8l9.3-5.3c2.4-1.4,5.4-0.5,6.8,1.8
			c1.4,2.4,0.5,5.4-1.8,6.8l-9.3,5.3C35.5,106.3,34.7,106.5,33.9,106.5z"/>
	</g>
	<g>
		<circle class="st0" cx="71.2" cy="74.3" r="9.1"/>
	</g>
	<g>
		<path class="st0" d="M71.4,69.5v4.8v4.8l30.4-1.9c1.5-0.1,2.7-1.3,2.7-2.8l0,0c0-1.5-1.2-2.7-2.7-2.8L71.4,69.5z"/>
	</g>
	<g>
		<path class="st0" d="M82.5,115H59.9c-2.3,0-4.2-1.9-4.2-4.2v0c0-2.3,1.9-4.2,4.2-4.2h22.6c2.3,0,4.2,1.9,4.2,4.2v0
			C86.7,113.2,84.8,115,82.5,115z"/>
	</g>
</g>
</svg>
