<?xml version="1.0" encoding="utf-8"?>
<!-- Generator: Adobe Illustrator 22.1.0, SVG Export Plug-In . SVG Version: 6.00 Build 0)  -->
<svg version="1.0" id="Layer_1" xmlns="http://www.w3.org/2000/svg" xmlns:xlink="http://www.w3.org/1999/xlink" x="0px" y="0px"
	 viewBox="0 0 150 140" style="enable-background:new 0 0 150 140;" xml:space="preserve">
<style type="text/css">
	.st0{fill:#A5C715;}
	.st1{fill:#FFFFFF;}
	.st2{fill:#1D1D1B;}
	.st3{fill:none;stroke:#1D1D1B;stroke-width:1.6287;stroke-linecap:round;stroke-miterlimit:10;}
	.st4{fill:none;stroke:#1D1D1B;stroke-width:1.6287;stroke-miterlimit:10;}
	.st5{fill:none;stroke:#1D1D1B;stroke-width:1.2605;stroke-linecap:round;stroke-miterlimit:10;}
	.st6{fill:none;stroke:#1D1D1B;stroke-width:1.2605;stroke-miterlimit:10;}
	.st7{fill:none;stroke:#1D1D1B;stroke-width:1.2591;stroke-linecap:round;stroke-miterlimit:10;}
	.st8{fill:none;stroke:#1D1D1B;stroke-width:1.2458;stroke-miterlimit:10;}
	.st9{fill:none;stroke:#1D1D1B;stroke-width:0.7019;stroke-miterlimit:10;}
	.st10{fill:#FFFFFF;stroke:#1D1D1B;stroke-width:1.4273;stroke-miterlimit:10;}
	.st11{fill:none;stroke:#1D1D1B;stroke-width:1.3648;stroke-miterlimit:10;}
	.st12{fill:none;stroke:#1D1D1B;stroke-width:1.4273;stroke-miterlimit:10;}
	.st13{fill:#FFFFFF;stroke:#1D1D1B;stroke-width:1.4273;stroke-linejoin:round;stroke-miterlimit:10;}
	.st14{fill:#FFFFFF;stroke:#1D1D1B;stroke-width:1.4273;stroke-linecap:round;stroke-linejoin:round;stroke-miterlimit:10;}
	.st15{fill:#FFFFFF;stroke:#1D1D1B;stroke-width:1.6;stroke-linecap:round;stroke-miterlimit:10;}
	.st16{fill:#FFFFFF;stroke:#1D1D1B;stroke-width:1.819;stroke-miterlimit:10;}
	.st17{fill:#FFFFFF;stroke:#1D1D1B;stroke-width:1.819;stroke-linecap:round;stroke-linejoin:round;stroke-miterlimit:10;}
	.st18{fill:none;stroke:#1D1D1B;stroke-width:1.819;stroke-linecap:round;stroke-linejoin:round;stroke-miterlimit:10;}
	.st19{fill:none;stroke:#1D1D1B;stroke-width:1.819;stroke-linejoin:round;stroke-miterlimit:10;}
	.st20{fill:none;stroke:#1D1D1B;stroke-width:1.819;stroke-miterlimit:10;}
	.st21{fill:none;stroke:#1D1D1B;stroke-width:1.4273;stroke-linecap:round;stroke-linejoin:round;stroke-miterlimit:10;}
	.st22{fill:none;stroke:#1D1D1B;stroke-width:1.4273;stroke-linecap:round;stroke-miterlimit:10;}
	.st23{fill:#A5C715;stroke:#1D1D1B;stroke-width:1.5;stroke-miterlimit:10;}
	.st24{fill:none;stroke:#1D1D1B;stroke-width:1.4273;stroke-linejoin:round;stroke-miterlimit:10;}
</style>
<g>
	<g>
		<path class="st0" d="M126.9,91.7H50c-8.1,0-14.7-6.6-14.7-14.7V35.5c0-8.1,6.6-14.7,14.7-14.7h76.8c8.1,0,14.7,6.6,14.7,14.7V77
			C141.6,85.1,135,91.7,126.9,91.7z M50,28.3c-4,0-7.2,3.2-7.2,7.2V77c0,4,3.2,7.2,7.2,7.2h76.8c4,0,7.2-3.2,7.2-7.2V35.5
			c0-4-3.2-7.2-7.2-7.2H50z"/>
	</g>
	<g>
		<rect x="39.1" y="41.7" class="st0" width="98.8" height="12.1"/>
	</g>
	<g>
		<g>
			<circle class="st1" cx="39.1" cy="88" r="26.9"/>
			<path class="st0" d="M39.1,118.6c-16.9,0-30.7-13.8-30.7-30.7s13.8-30.7,30.7-30.7S69.7,71.1,69.7,88S56,118.6,39.1,118.6z
				 M39.1,64.8c-12.8,0-23.1,10.4-23.1,23.1s10.4,23.1,23.1,23.1S62.2,100.7,62.2,88S51.8,64.8,39.1,64.8z"/>
		</g>
		<g>
			<path class="st0" d="M36.6,91.7V94h6v3.5h-6v3.6h-4.5v-3.6h-2.6V94h2.6v-2.3h-2.6V88h2.6V76.8h7c2.2,0,4,0.2,5.4,0.6
				c1.7,0.5,3,1.4,3.9,2.5s1.3,2.5,1.3,4.2c0,2.4-1,4.3-2.9,5.6c-1.9,1.3-4.6,2-8.1,2H36.6z M36.6,88h2.2c2.3,0,3.9-0.4,5-1.1
				c0.9-0.7,1.4-1.6,1.4-2.9c0-0.8-0.2-1.4-0.5-1.9c-0.3-0.5-0.9-0.9-1.7-1.2c-0.8-0.3-2.1-0.4-3.9-0.4h-2.5V88z"/>
		</g>
	</g>
</g>
</svg>
