<svg width="48" height="10" viewBox="0 0 48 10" fill="none" xmlns="http://www.w3.org/2000/svg">
<g clip-path="url(#clip0)">
<path d="M5.18488 4.38688H1.59943V0.718195H-0.0126953V9.7687H1.60347V5.99658H5.18488V9.76466H6.79619V0.718195H5.18488V4.38688ZM45.1849 6.4685C45.8531 6.2549 46.423 5.80971 46.7921 5.21313C47.1611 4.61655 47.305 3.9078 47.1978 3.21454C47.0905 2.52129 46.7393 1.8891 46.2073 1.43187C45.6753 0.97463 44.9975 0.722403 44.296 0.720619H40.8705V9.77113H42.4818V5.7388L45.8394 9.76466H47.9324L45.1849 6.4685ZM42.4818 4.99456V2.32789H44.2766C44.6302 2.32789 44.9694 2.46837 45.2194 2.71842C45.4695 2.96846 45.6099 3.3076 45.6099 3.66123C45.6099 4.01485 45.4695 4.35399 45.2194 4.60404C44.9694 4.85408 44.6302 4.99456 44.2766 4.99456H42.4818ZM25.6261 6.33678L21.7142 0.691528H20.4293V9.74204H22.0406V4.06365L25.972 9.73719H27.2374V0.691528H25.6261V6.33678ZM13.6124 0.59375C12.6943 0.59375 11.7969 0.865976 11.0336 1.376C10.2703 1.88603 9.67537 2.61095 9.32406 3.4591C8.97275 4.30724 8.88083 5.24052 9.05993 6.1409C9.23902 7.04129 9.6811 7.86835 10.3302 8.51749C10.9794 9.16663 11.8064 9.6087 12.7068 9.7878C13.6072 9.9669 14.5405 9.87498 15.3886 9.52366C16.2368 9.17235 16.9617 8.57742 17.4717 7.81411C17.9817 7.0508 18.254 6.15339 18.254 5.23537C18.254 4.00433 17.7649 2.82372 16.8945 1.95325C16.024 1.08278 14.8434 0.59375 13.6124 0.59375ZM13.6124 8.26567C13.0132 8.26487 12.4277 8.08647 11.9299 7.75301C11.4321 7.41955 11.0443 6.946 10.8156 6.39222C10.5869 5.83843 10.5274 5.22927 10.6448 4.64171C10.7622 4.05416 11.0511 3.51459 11.4751 3.09119C11.899 2.6678 12.439 2.3796 13.0267 2.263C13.6144 2.1464 14.2235 2.20665 14.777 2.43612C15.3305 2.6656 15.8035 3.054 16.1363 3.55224C16.4691 4.05048 16.6467 4.6362 16.6467 5.23537C16.6467 5.63365 16.5682 6.02803 16.4156 6.39595C16.2631 6.76387 16.0395 7.0981 15.7577 7.37955C15.4759 7.66099 15.1414 7.88411 14.7732 8.03616C14.4051 8.18821 14.0106 8.2662 13.6124 8.26567ZM34.0544 0.59375C33.1363 0.59359 32.2388 0.865681 31.4754 1.37561C30.712 1.88554 30.1169 2.61041 29.7655 3.45854C29.4141 4.30667 29.322 5.23997 29.501 6.14041C29.68 7.04085 30.1221 7.86798 30.7712 8.5172C31.4203 9.16642 32.2473 9.60857 33.1477 9.78774C34.0481 9.9669 34.9815 9.87503 35.8297 9.52374C36.6778 9.17245 37.4028 8.57752 37.9129 7.8142C38.4229 7.05087 38.6952 6.15343 38.6952 5.23537C38.6952 4.00447 38.2063 2.82398 37.336 1.95353C36.4657 1.08309 35.2853 0.593964 34.0544 0.59375ZM34.0544 8.26567C33.455 8.26583 32.869 8.08824 32.3706 7.75537C31.8722 7.42249 31.4836 6.94928 31.2542 6.39558C31.0247 5.84187 30.9646 5.23255 31.0814 4.64468C31.1982 4.05681 31.4868 3.51678 31.9105 3.09291C32.3343 2.66903 32.8742 2.38034 33.4621 2.26335C34.0499 2.14636 34.6593 2.20632 35.213 2.43565C35.7668 2.66499 36.2401 3.05339 36.5731 3.55174C36.9061 4.05009 37.0839 4.636 37.0839 5.23537C37.0839 6.03891 36.7647 6.80956 36.1966 7.37783C35.6285 7.9461 34.8579 8.26546 34.0544 8.26567Z" fill="url(#paint0_linear)"/>
</g>
<defs>
<linearGradient id="paint0_linear" x1="18.5053" y1="-6.11817" x2="28.0406" y2="17.3162" gradientUnits="userSpaceOnUse">
<stop stop-color="#FF00D0"/>
<stop offset="0.25" stop-color="#4E73FF"/>
<stop offset="0.6" stop-color="#00B1FF"/>
<stop offset="1" stop-color="#00FFFF"/>
</linearGradient>
<clipPath id="clip0">
<rect width="48" height="9.29293" fill="white" transform="translate(0 0.589844)"/>
</clipPath>
</defs>
</svg>
