<svg width="32" height="33" viewBox="0 0 32 33" fill="none" xmlns="http://www.w3.org/2000/svg">
<g clip-path="url(#clip0)">
<path fill-rule="evenodd" clip-rule="evenodd" d="M30.7805 32.5859H1.2111C0.540176 32.5859 -0.00366211 32.0421 -0.00366211 31.3711V1.79963C-0.00366211 1.12866 0.540176 0.585094 1.2111 0.585094H30.7805C31.4514 0.585094 31.9953 1.12866 31.9953 1.79963V31.3711C31.9953 32.0421 31.4514 32.5859 30.7805 32.5859Z" fill="#FF6700"/>
<path d="M25.088 10.647H22.5705C22.4627 10.647 22.3755 10.7327 22.3755 10.8384V22.3252C22.3755 22.4299 22.4627 22.5156 22.5705 22.5156H25.088C25.1948 22.5156 25.2833 22.4299 25.2833 22.3252V10.8384C25.2833 10.7327 25.1948 10.647 25.088 10.647Z" fill="white"/>
<path d="M16.4924 10.647H6.90319C6.7954 10.647 6.70874 10.7327 6.70874 10.8384V22.3252C6.70874 22.4299 6.7954 22.5156 6.90319 22.5156H9.42123C9.52841 22.5156 9.61722 22.4299 9.61722 22.3252V13.3097C9.61722 13.2056 9.70386 13.1193 9.81165 13.1193H15.2357C16.761 13.1193 17.194 14.2876 17.194 15.0412V22.3252C17.194 22.4299 17.2816 22.5156 17.3893 22.5156H19.9059C20.013 22.5156 20.1009 22.4299 20.1009 22.3252V14.1764C20.1009 13.5042 20.0201 12.5377 19.1529 11.687C18.2455 10.7989 17.4178 10.647 16.4924 10.647Z" fill="white"/>
<path d="M14.7288 15.2216H12.0852C11.9774 15.2216 11.8889 15.3073 11.8889 15.4124V22.3254C11.8889 22.4299 11.9774 22.5156 12.0852 22.5156H14.7288C14.8357 22.5156 14.9232 22.4299 14.9232 22.3254V15.4124C14.9232 15.3073 14.8357 15.2216 14.7288 15.2216Z" fill="white"/>
</g>
<defs>
<clipPath id="clip0">
<rect width="32" height="32" fill="white" transform="translate(0 0.589844)"/>
</clipPath>
</defs>
</svg>
