<svg width="33" height="32" viewBox="0 0 33 32" fill="none" xmlns="http://www.w3.org/2000/svg">
<path d="M0 16.0007C0 24.8391 7.16584 32 15.9916 32C24.7971 32 31.9344 24.907 32.0032 16.1246V15.8749C31.9344 7.09439 24.7971 1.90735e-06 15.9916 1.90735e-06C7.16584 1.90735e-06 0 7.16223 0 16.0007Z" fill="url(#paint0_radial)"/>
<path d="M5.16653 5.1659C-0.180143 10.5139 -0.721551 18.6617 3.97381 23.358C8.66871 28.0506 16.8106 27.5138 22.1591 22.1626C27.5157 16.8037 28.0549 8.65812 23.3631 3.96276C21.2197 1.81885 18.3575 0.76499 15.3651 0.76499C11.8109 0.76499 8.07529 2.25578 5.16653 5.1659Z" fill="url(#paint1_linear)"/>
<path d="M16.1405 2.53456L15.8076 2.64401C8.29171 2.64401 2.65601 8.92696 2.65601 16.4076C2.65601 20.0269 4.0776 23.435 6.65346 25.996C9.22571 28.5587 12.6361 29.8555 16.2758 29.8555C19.9317 29.8555 23.3647 28.4764 25.9356 25.9141C28.5142 23.3523 29.9317 19.9451 29.9317 16.3257V15.5455L29.6069 15.2655L19.7092 15.2696V16.854L19.9553 17.1829C19.9553 17.1829 19.9846 17.2154 20.0389 17.2154H27.5834H28.3102H28.313H28.3216C27.8941 23.4776 22.6117 28.3805 16.3012 28.3805C13.0853 28.3805 10.0607 27.1313 7.78157 24.872C5.5101 22.6096 4.26038 19.6058 4.26038 16.4076C4.26038 13.2071 5.44452 10.1387 7.71553 7.88079C10.0006 5.62651 12.8754 4.43605 16.3179 4.36097L16.9678 4.35148H17.0402C17.0854 4.34605 17.1239 4.34469 17.1239 4.24519V2.94707C17.1239 2.85254 17.0918 2.80777 17.0918 2.80642L16.8 2.44005L16.1405 2.53456ZM15.6335 9.22231H15.5643V9.24222L15.4657 9.27161L15.5643 9.42901L15.5664 22.947L15.1707 23.1718L15.4769 23.3866C15.5013 23.4034 15.5936 23.4549 15.7003 23.4518H20.1496C20.198 23.4445 20.2396 23.4142 20.2396 23.3455V22.1075C20.2396 22.0152 20.2256 21.9854 20.2039 21.9583L19.9701 21.5928H17.0618L17.074 9.28381C17.0758 9.21371 17.0437 9.1816 17.0437 9.1816L16.8293 8.81207L15.6335 9.22231ZM8.9385 11.1383C8.9385 12.3156 9.90145 13.2709 11.091 13.2709C12.2792 13.2709 13.2417 12.3156 13.2417 11.1383C13.2417 9.95866 12.2792 9.00023 11.091 9.00023C9.90145 9.00023 8.9385 9.95866 8.9385 11.1383Z" fill="url(#paint2_linear)"/>
<path d="M15.4975 22.8612L15.1719 23.1719H19.9699L19.6574 22.8522L15.4975 22.8612Z" fill="#616D76"/>
<path d="M16.8292 21.595L16.457 21.8984H19.6569L19.9694 21.595H16.8292Z" fill="#879AA4"/>
<path d="M15.1709 8.804L15.482 9.10156L16.4737 9.09971L16.8292 8.80396L15.1709 8.804Z" fill="#8E9BA1"/>
<path d="M16.4741 9.1092L16.4841 21.875L16.8296 21.5946V8.81384L16.4741 9.1092Z" fill="url(#paint3_linear)"/>
<path d="M19.6577 21.8932V22.8487L19.9702 23.168V21.5893L19.6577 21.8932Z" fill="url(#paint4_linear)"/>
<path d="M15.1709 23.168L15.4966 22.8572L15.4821 9.10543L15.1709 8.80825L15.1709 23.168Z" fill="#B5BEC4"/>
<path d="M8.79834 10.892C8.79834 12.0406 9.73397 12.9727 10.8871 12.9727C12.0421 12.9727 12.9741 12.0406 12.9741 10.892C12.9741 9.74113 12.0421 8.80505 10.8871 8.80505C9.73397 8.80505 8.79834 9.74113 8.79834 10.892ZM9.1072 10.892C9.1072 9.91207 9.90536 9.11843 10.8871 9.11843C11.8657 9.11843 12.6643 9.91207 12.6643 10.892C12.6643 11.8688 11.8657 12.6597 10.8871 12.6597C9.90536 12.6597 9.1072 11.8688 9.1072 10.892Z" fill="url(#paint5_linear)"/>
<path d="M19.6533 16.8047H27.936L28.1011 16.6333L28.2544 16.4904L19.9613 16.4809L19.6533 16.8047Z" fill="#505C61"/>
<path d="M19.6533 15.2107L19.9609 15.5391L29.2362 15.5241L29.5501 15.2084L19.6533 15.2107Z" fill="#909DA5"/>
<path d="M2.43628 15.991C2.43628 19.6108 3.84792 23.018 6.4066 25.5798C8.96302 28.1408 12.3657 29.5547 15.9841 29.5547C19.6148 29.5547 23.026 28.1408 25.5815 25.5798C28.1434 23.018 29.551 19.6108 29.551 15.991V15.2081L29.2366 15.5242V15.991C29.2366 19.5298 27.8621 22.8552 25.3622 25.3596C22.8646 27.8631 19.5315 29.2426 15.9841 29.2426C12.4516 29.2426 9.12584 27.8631 6.62777 25.3596C4.12654 22.8529 2.74927 19.5267 2.74927 15.991C2.74927 8.68225 8.68756 2.74035 15.9841 2.74035L16.4902 2.73448L16.8001 2.43369L15.9841 2.42602C8.51704 2.42602 2.43628 8.51086 2.43628 15.991" fill="url(#paint6_linear)"/>
<path d="M15.8104 3.71276C12.6045 3.75934 9.5935 5.03259 7.30485 7.30587C4.99132 9.62392 3.71582 12.7095 3.71582 15.9928C3.71582 19.2752 4.99132 22.3567 7.30485 24.677C9.59486 26.9611 12.6171 28.2384 15.833 28.2773H16.1496C22.5167 28.1964 27.8159 23.1935 28.246 16.825L28.2569 16.4863L28.1013 16.6292L27.9362 16.8006C27.511 23.0627 22.263 27.9657 15.9927 27.9657C12.7972 27.9657 9.79251 26.7169 7.52828 24.4558C5.27084 22.1952 4.03017 19.1906 4.03017 15.9928C4.03017 12.7923 5.27084 9.78313 7.52828 7.52568C9.79703 5.27231 12.8008 4.0253 15.9927 4.0253L16.8 4.03299L16.4889 3.72044L16.1397 3.71276H15.8104Z" fill="url(#paint7_linear)"/>
<path d="M19.6533 16.8047L19.9608 16.4809V15.5453L19.6533 15.217V16.8047Z" fill="#B5BEC4"/>
<path d="M16.4905 2.73865V3.72447L16.8002 4.03516V2.43794L16.4905 2.73865Z" fill="url(#paint8_linear)"/>
<path d="M15.8128 2.59905C8.52123 2.6868 2.59741 8.66082 2.59741 15.994C2.59741 19.5731 3.99141 22.9323 6.51843 25.463C9.04274 27.9936 12.4119 29.3867 15.9756 29.3867C19.5624 29.3867 22.9284 27.9936 25.4537 25.463C27.9834 22.9323 29.3729 19.5731 29.3729 15.994V15.3848L28.8437 15.3869H19.8157V16.6303H28.101C28.0998 16.6593 28.0998 16.7872 28.0974 16.8117C27.6663 23.1236 22.406 28.1369 15.9838 28.1369C12.7462 28.1369 9.69902 26.8727 7.39861 24.5768C5.11267 22.2872 3.84938 19.2387 3.84938 15.9939C3.84938 12.7464 5.11267 9.69559 7.39861 7.40738C9.69902 5.12144 12.7462 3.8568 15.9838 3.8568C16.1235 3.8568 16.4714 3.8568 16.6242 3.86042V2.60619C16.498 2.60619 16.2886 2.6021 16.1235 2.59894L15.8128 2.59905ZM15.3469 8.97789V23.0006H19.8053V21.7509H16.6242V8.97789H15.3469Z" fill="url(#paint9_radial)"/>
<path d="M8.95801 10.8888C8.95801 11.9466 9.824 12.8008 10.8804 12.8008C11.9358 12.8008 12.8 11.9466 12.8 10.8888C12.8 9.82296 11.9358 8.96917 10.8804 8.96917C9.824 8.96917 8.95801 9.82296 8.95801 10.8888Z" fill="url(#paint10_radial)"/>
<path d="M11.2259 9.31168C11.6663 9.31168 12.0674 9.46904 12.3921 9.71957C12.043 9.26419 11.4949 8.96707 10.8813 8.96707C9.8231 8.96707 8.95801 9.82041 8.95801 10.8863C8.95801 11.4986 9.25466 12.0376 9.70461 12.3867C9.4577 12.0652 9.3026 11.6704 9.3026 11.2313C9.3026 10.1686 10.1677 9.31168 11.2259 9.31168Z" fill="white"/>
<path d="M16.6241 2.60461C16.4563 2.60185 16.1383 2.59513 15.9773 2.59513C8.60748 2.59513 2.59863 8.6067 2.59863 15.9924C2.59863 19.575 3.99263 22.9302 6.51829 25.4627C6.5988 25.5436 6.68293 25.6196 6.7648 25.6992C4.38161 23.1953 3.06722 19.9364 3.06722 16.4618C3.06722 9.09337 8.28544 2.97461 16.6241 2.60463" fill="white"/>
<path d="M16.6235 21.7527C16.6235 21.7527 17.5424 22.0195 19.8021 22.0195V21.7527H16.6235Z" fill="white"/>
<path d="M16.6241 9.37601V8.98024H15.3477V23.0039C15.3477 23.0039 15.7466 20.8708 15.7466 9.37601H16.6241Z" fill="white"/>
<path d="M29.3716 15.3839L19.8154 15.3861V16.6289H20.1628V15.7316C28.4893 15.7316 29.3716 15.3838 29.3716 15.3838" fill="white"/>
<path d="M28.1023 16.6325C28.0995 16.6596 28.0995 16.7935 28.095 16.8174C27.6694 23.1253 22.4055 28.1391 15.9837 28.1391C12.7457 28.1391 9.69761 26.8749 7.39855 24.5781C5.90097 23.0819 4.8444 21.2582 4.29395 19.2698C5.73046 24.4976 10.5113 28.2852 16.1927 28.2852C22.2915 28.2852 27.911 23.5084 28.2597 16.6325H28.1023Z" fill="white"/>
<defs>
<radialGradient id="paint0_radial" cx="0" cy="0" r="1" gradientUnits="userSpaceOnUse" gradientTransform="translate(15.4059 15.5185) scale(16.682)">
<stop stop-color="#C00C3F"/>
<stop offset="0.5" stop-color="#C00C3F"/>
<stop offset="1" stop-color="#9A002B"/>
</radialGradient>
<linearGradient id="paint1_linear" x1="9.44713" y1="2.064" x2="17.8888" y2="25.2572" gradientUnits="userSpaceOnUse">
<stop stop-color="#F48996"/>
<stop offset="0.801102" stop-color="#C00C3F"/>
<stop offset="1" stop-color="#C00C3F"/>
</linearGradient>
<linearGradient id="paint2_linear" x1="5.32279" y1="7.80117" x2="24.6855" y2="27.1639" gradientUnits="userSpaceOnUse">
<stop stop-color="#CE425C"/>
<stop offset="1" stop-color="#910531"/>
</linearGradient>
<linearGradient id="paint3_linear" x1="16.4741" y1="15.3442" x2="16.8293" y2="15.3442" gradientUnits="userSpaceOnUse">
<stop stop-color="#B5BEC4"/>
<stop offset="1" stop-color="#333940"/>
</linearGradient>
<linearGradient id="paint4_linear" x1="19.6577" y1="22.3789" x2="19.9703" y2="22.3789" gradientUnits="userSpaceOnUse">
<stop stop-color="#B4BCC2"/>
<stop offset="1" stop-color="#2B3337"/>
</linearGradient>
<linearGradient id="paint5_linear" x1="9.40793" y1="9.4092" x2="12.3577" y2="12.359" gradientUnits="userSpaceOnUse">
<stop stop-color="#ABBAC3"/>
<stop offset="1" stop-color="#202428"/>
</linearGradient>
<linearGradient id="paint6_linear" x1="5.18403" y1="7.57591" x2="24.5177" y2="26.9096" gradientUnits="userSpaceOnUse">
<stop stop-color="#B5BEC4"/>
<stop offset="1" stop-color="#3E454D"/>
</linearGradient>
<linearGradient id="paint7_linear" x1="28.2555" y1="15.9959" x2="3.71637" y2="15.9959" gradientUnits="userSpaceOnUse">
<stop stop-color="#B5BEC4"/>
<stop offset="1" stop-color="#485059"/>
</linearGradient>
<linearGradient id="paint8_linear" x1="16.4905" y1="3.23654" x2="16.8001" y2="3.23654" gradientUnits="userSpaceOnUse">
<stop stop-color="#B4BCC2"/>
<stop offset="1" stop-color="#2B3337"/>
</linearGradient>
<radialGradient id="paint9_radial" cx="0" cy="0" r="1" gradientUnits="userSpaceOnUse" gradientTransform="translate(10.5883 10.3221) scale(20.4779)">
<stop stop-color="white"/>
<stop offset="0.350006" stop-color="white"/>
<stop offset="1" stop-color="#C0CCD3"/>
</radialGradient>
<radialGradient id="paint10_radial" cx="0" cy="0" r="1" gradientUnits="userSpaceOnUse" gradientTransform="translate(10.0849 10.1802) scale(2.98957)">
<stop stop-color="white"/>
<stop offset="0.350006" stop-color="white"/>
<stop offset="1" stop-color="#D0DADF"/>
</radialGradient>
</defs>
</svg>
