<svg width="32" height="33" viewBox="0 0 32 33" fill="none" xmlns="http://www.w3.org/2000/svg">
<g clip-path="url(#clip0)">
<path d="M16.0005 2.0521C12.0874 2.0521 8.54359 3.63933 5.97784 6.20704C3.4111 8.76889 1.82485 12.3146 1.82485 16.2297C1.82485 20.1419 3.4111 23.6852 5.97784 26.248C8.54359 28.8123 12.0874 30.4024 16.0005 30.4024C19.9146 30.4024 23.4604 28.8123 26.0222 26.248C28.588 23.6852 30.1708 20.1419 30.1708 16.2297C30.1708 12.3146 28.588 8.76889 26.0222 6.20704C23.4604 3.63933 19.9146 2.0521 16.0005 2.0521ZM16.0005 0.334427C24.7769 0.334427 31.8929 7.45133 31.8929 16.2297C31.8929 25.0052 24.7769 32.1211 16.0005 32.1211C7.22505 32.1211 0.106201 25.0052 0.106201 16.2297C0.106201 7.45133 7.22505 0.334427 16.0005 0.334427Z" fill="#007DB8"/>
<path d="M8.48364 16.0999C8.48364 15.1737 7.86907 14.6476 6.999 14.6476H6.4665V17.5533H6.98385C7.79286 17.5533 8.48364 17.1136 8.48364 16.0999ZM17.9557 17.1454L14.0328 20.2344L10.4475 17.4117C9.93017 18.6545 8.68003 19.5177 7.24033 19.5177H4.17188V12.6822H7.24033C8.84906 12.6822 10.0083 13.7052 10.4465 14.7951L14.0328 11.9753L15.3612 13.0207L12.0743 15.6041L12.706 16.0985L15.9918 13.5166L17.3221 14.5591L14.0358 17.1454L14.6665 17.6408L17.9557 15.054V12.6822H20.3403V17.5225H22.7189V19.526H17.9557V17.1454ZM25.7395 17.5235H28.1172V19.526H23.3525V12.6822H25.7395V17.5235Z" fill="#007DB8"/>
</g>
<defs>
<clipPath id="clip0">
<rect width="32" height="32" fill="white" transform="translate(0 0.226562)"/>
</clipPath>
</defs>
</svg>
