<svg width="48" height="10" viewBox="0 0 48 10" fill="none" xmlns="http://www.w3.org/2000/svg">
<g clip-path="url(#clip0)">
<path d="M33.4856 2.19707V0.16499C36.1333 0.12509 36.2405 0.08999 37.1159 0.11255C38.4614 0.14651 39.2728 0.53087 39.8563 1.12169C40.4188 1.69115 40.8648 2.55959 40.8441 3.82007C40.8319 4.54583 40.3837 7.21571 37.1377 7.38233C36.7571 7.41629 35.8832 7.38635 35.3281 7.39931L35.8769 5.31443C37.1629 5.42159 38.1832 5.01581 38.2375 3.79859C38.2969 2.43209 37.0857 1.99823 35.8773 2.21219L33.4856 2.19707Z" fill="#0081C4"/>
<path d="M35.8758 9.36613L33.4856 9.36577V1.76562L35.8758 1.7811V9.36613Z" fill="#0081C4"/>
<path d="M44.467 3.40708L46.4288 4.10584C47.7348 4.62136 48.0123 5.66746 47.9998 6.56842C47.971 8.6581 46.3036 9.44152 44.9744 9.55462C43.463 9.6829 42.2931 9.42976 41.8999 9.36586V7.09174C43.0961 7.45504 44.4881 7.44058 44.9581 7.25734C45.3137 7.11874 45.5838 6.907 45.5623 6.62908C45.5505 6.4783 45.5354 6.28654 45.086 6.09442L43.2768 5.43814C42.115 5.01982 41.6668 3.91678 41.7152 2.93422C41.8135 0.949062 43.3995 -0.0556979 44.983 0.00238207C45.4715 0.0200821 46.1296 0.00862207 47.0867 0.140982V2.39398C46.0144 2.14456 45.5114 2.14864 44.9582 2.2174C44.3393 2.29384 44.0614 2.61388 44.0743 2.95576C44.0806 3.12904 44.2535 3.319 44.4671 3.40402" fill="#0081C4"/>
<path d="M10.9156 3.59542H13.4894L13.4887 0.175781H15.8792V9.36826H13.4894V5.67778H10.9156L10.9153 9.36826H8.52222V0.175781H10.9153L10.9156 3.59542Z" fill="#0081C4"/>
<path d="M20.5226 0.175781H18.1306V9.36826H20.5226V0.175781Z" fill="#0081C4"/>
<path d="M31.2115 0.175781H28.8191V9.36826H31.2115V0.175781Z" fill="#0081C4"/>
<path d="M25.1664 7.28116H27.6327V9.36754L22.7737 9.36826V0.175781H25.1664V7.28116Z" fill="#0081C4"/>
<path d="M0.000244141 2.19707V0.16499C2.64828 0.12509 2.75514 0.08999 3.6309 0.11255C4.97598 0.14651 5.78748 0.53087 6.37134 1.12169C6.93336 1.69115 7.37982 2.55959 7.35912 3.82007C7.34652 4.54583 6.89826 7.21571 3.65232 7.38233C3.2721 7.41629 2.42544 7.38635 1.87044 7.39931L2.39292 5.31443C3.67926 5.42159 4.69884 5.01581 4.752 3.79859C4.81146 2.43209 3.59982 1.99823 2.39184 2.21219L0.000244141 2.19707Z" fill="#0081C4"/>
<path d="M2.39406 9.36463L0.000244141 9.36427V1.92188L2.39184 1.93706L2.39406 9.36463Z" fill="#0081C4"/>
</g>
<defs>
<clipPath id="clip0">
<rect width="48" height="9.59052" fill="white"/>
</clipPath>
</defs>
</svg>
