<svg width="27" height="32" viewBox="0 0 27 32" fill="none" xmlns="http://www.w3.org/2000/svg">
<g clip-path="url(#clip0)">
<path d="M22.0309 17.0014C21.9941 12.955 25.3786 11.0124 25.5317 10.9177C23.6272 8.16698 20.6632 7.79016 19.6058 7.74582C17.0849 7.49393 14.6843 9.21083 13.4065 9.21083C12.1286 9.21083 10.1527 7.7821 8.06238 7.8224C5.31073 7.8627 2.7775 9.40026 1.36085 11.8305C-1.49491 16.7213 0.632112 23.9698 3.41234 27.9397C4.77388 29.8803 6.39465 32.0667 8.52575 31.9861C10.5793 31.9055 11.355 30.6763 13.8331 30.6763C16.3112 30.6763 17.0093 31.9861 19.1792 31.9478C21.3858 31.9055 22.7862 29.9649 24.1375 28.0183C25.697 25.7653 26.3421 23.5849 26.3788 23.4701C26.3298 23.4499 22.0758 21.8398 22.0309 17.0014Z" fill="#B3B3B3"/>
<path d="M17.9543 5.11808C19.0852 3.76591 19.8486 1.88574 19.6383 0.0117188C18.0093 0.0762735 16.0375 1.0838 14.8678 2.43597C13.8207 3.63101 12.9021 5.54536 13.151 7.38122C14.9678 7.52027 16.8233 6.46826 17.9543 5.11808Z" fill="#B3B3B3"/>
</g>
<defs>
<clipPath id="clip0">
<rect width="26.386" height="32" fill="white" transform="translate(0.000244141)"/>
</clipPath>
</defs>
</svg>
