<svg width="48" height="9" viewBox="0 0 48 9" fill="none" xmlns="http://www.w3.org/2000/svg">
<path d="M39.7277 6.482L39.6345 1.09766H41.3319V7.88464H38.8913L37.1967 2.3152H37.1596L37.2542 7.88464H35.5664V1.09766H38.1139L39.6907 6.482H39.7277Z" fill="#034EA2"/>
<path d="M8.86384 1.73385L7.92463 7.95594H6.07227L7.34328 1.09766H10.394L11.6609 7.95594H9.81539L8.90223 1.73385H8.86384Z" fill="#034EA2"/>
<path d="M16.8624 6.34077L17.7098 1.09766H20.5068L20.6549 7.95594H18.941L18.8958 1.79007H18.8601L17.7139 7.95594H15.9739L14.8263 1.79007H14.7893L14.7468 7.95594H13.0288L13.181 1.09766H15.9794L16.8254 6.34077H16.8624Z" fill="#034EA2"/>
<path d="M3.18508 6.0231C3.25227 6.189 3.2317 6.40289 3.20017 6.53178C3.14258 6.75938 2.98764 6.99247 2.53244 6.99247C2.10191 6.99247 1.8414 6.74567 1.8414 6.36999V5.70637H0.00137161L0 6.23699C0 7.76577 1.20383 8.22784 2.49405 8.22784C3.7349 8.22784 4.75637 7.80416 4.91816 6.66066C5.0018 6.06834 4.93873 5.68032 4.91131 5.53361C4.62201 4.09806 2.01827 3.6689 1.82494 2.86681C1.79204 2.72969 1.80164 2.58299 1.81809 2.50483C1.86608 2.28683 2.01553 2.04551 2.44469 2.04551C2.84505 2.04551 3.08225 2.29368 3.08225 2.66799C3.08225 2.79414 3.08225 3.09167 3.08225 3.09167H4.79202V2.61041C4.79202 1.1159 3.45108 0.882812 2.48033 0.882812C1.26005 0.882812 0.263253 1.28592 0.0808957 2.402C0.0315358 2.7105 0.0246799 2.98472 0.0959775 3.32887C0.39625 4.72877 2.83134 5.13462 3.18508 6.0231Z" fill="#034EA2"/>
<path d="M25.4862 6.00889C25.5534 6.17342 25.5315 6.38183 25.5013 6.51072C25.4451 6.73832 25.2915 6.9673 24.8391 6.9673C24.4154 6.9673 24.1562 6.7205 24.1562 6.35304L24.1549 5.69491H22.334L22.3313 6.21867C22.3313 7.73237 23.5242 8.18895 24.8007 8.18895C26.0278 8.18895 27.0397 7.77076 27.2001 6.63823C27.2837 6.05002 27.2248 5.66749 27.1946 5.52352C26.9067 4.10168 24.3304 3.67664 24.1384 2.88139C24.1055 2.74428 24.1151 2.60032 24.1316 2.52628C24.1809 2.30553 24.3276 2.07107 24.7527 2.07107C25.1503 2.07107 25.382 2.31239 25.382 2.68533C25.382 2.8101 25.382 3.10489 25.382 3.10489H27.0794V2.62774C27.0794 1.14969 25.7495 0.917969 24.787 0.917969C23.5804 0.917969 22.5918 1.31559 22.4136 2.42482C22.3642 2.7292 22.3587 2.99794 22.43 3.34072C22.7248 4.72691 25.1366 5.13001 25.4862 6.00889Z" fill="#034EA2"/>
<path d="M31.2466 6.93309C31.7224 6.93309 31.8705 6.60402 31.9034 6.43538C31.9171 6.36134 31.9212 6.26262 31.9199 6.1735V1.09766H33.6543V6.01719C33.6584 6.14333 33.6461 6.40247 33.6392 6.46691C33.5172 7.74753 32.5053 8.16297 31.2453 8.16297C29.9839 8.16297 28.9706 7.74753 28.8499 6.46691C28.8445 6.40247 28.8321 6.14196 28.8349 6.01719V1.09766H30.5679V6.17213C30.5679 6.26125 30.5707 6.36134 30.5844 6.43401C30.6228 6.60265 30.7668 6.93309 31.2466 6.93309Z" fill="#034EA2"/>
<path d="M45.5539 6.86056C46.0502 6.86056 46.2243 6.54657 46.2559 6.36421C46.2682 6.28606 46.2723 6.19008 46.271 6.1037V5.10828H45.5676V4.10737H47.9999V5.94877C47.9986 6.07765 47.9958 6.17226 47.9752 6.40124C47.8614 7.64894 46.7783 8.09455 45.5635 8.09455C44.3459 8.09455 43.2655 7.64894 43.1489 6.40124C43.1298 6.17226 43.127 6.07765 43.1243 5.94877L43.1256 3.06122C43.1256 2.93919 43.1407 2.72392 43.1544 2.60875C43.3066 1.32677 44.3459 0.914062 45.5635 0.914062C46.7796 0.914062 47.845 1.32402 47.9711 2.60875C47.9931 2.82676 47.9862 3.06122 47.9862 3.06122V3.29019H46.2572V2.90628C46.2586 2.90765 46.2545 2.74312 46.2353 2.64577C46.2065 2.49358 46.0749 2.14532 45.5511 2.14532C45.0507 2.14532 44.9053 2.47438 44.8683 2.64577C44.8477 2.73626 44.8395 2.85829 44.8395 2.96935V6.10645C44.8382 6.19283 44.8436 6.2888 44.8573 6.36696C44.8848 6.54657 45.0575 6.86056 45.5539 6.86056Z" fill="#034EA2"/>
</svg>
