<svg viewBox="0 0 30 24" fill="none" xmlns="http://www.w3.org/2000/svg"><path d="M6.9 8.1v7.24a2 2 0 0 0 2 2H27a2 2 0 0 0 2-2V8.1m-22.1 0H29m-22.1 0V5.55M29 8.1V5.55m-22.1 0V3.5a2 2 0 0 1 2-2H27a2 2 0 0 1 2 2v2.05m-22.1 0H29" stroke="#99989D" stroke-width="1.5"/><circle cx="6.89" cy="17.34" r="5.89" fill="#FEFFFD" stroke="#99989D" stroke-width="1.5"/><path d="M4.32 17.5h.84v-3.1H7.1c.8 0 1.38.17 1.74.5.37.34.56.82.56 1.42s-.19 1.07-.57 1.42c-.37.34-.94.51-1.73.51H6v.6h2.08v.65H6v1.08h-.83V19.5h-.84v-.66h.84v-.59h-.84v-.74zm1.67-2.34v2.35H7.1c.53 0 .9-.1 1.12-.3.21-.19.32-.48.32-.88 0-.39-.11-.68-.33-.87-.22-.2-.59-.3-1.1-.3H5.98z" fill="#99989D"/></svg>