<svg width="13" height="13" viewBox="0 0 13 13" fill="none" xmlns="http://www.w3.org/2000/svg">
<path d="M5.19238 12.1235C5.57324 12.1235 5.87158 11.9712 6.08105 11.6602L12.0225 2.49414C12.1748 2.26562 12.2383 2.05615 12.2383 1.85938C12.2383 1.33887 11.8574 0.964355 11.3242 0.964355C10.9561 0.964355 10.7339 1.09131 10.5117 1.44678L5.16699 9.90186L2.4375 6.46143C2.22168 6.20117 1.99951 6.08057 1.68213 6.08057C1.14258 6.08057 0.755371 6.46143 0.755371 6.98828C0.755371 7.2168 0.831543 7.43262 1.02832 7.66113L4.31006 11.6919C4.55762 11.9902 4.83057 12.1235 5.19238 12.1235Z" fill="#FEFFFD"/>
</svg>
