<svg width="26" height="26" viewBox="0 0 26 26" fill="none" xmlns="http://www.w3.org/2000/svg">
<path d="M20.5832 22.7487H5.41658C4.82075 22.7487 4.33325 22.2612 4.33325 21.6654V10.832H21.6666V21.6654C21.6666 22.2612 21.1791 22.7487 20.5832 22.7487Z" fill="#D32F2F"/>
<path d="M22.75 10.8333H3.25V7.58333C3.25 6.9875 3.7375 6.5 4.33333 6.5H21.6667C22.2625 6.5 22.75 6.9875 22.75 7.58333V10.8333Z" fill="#F44336"/>
<path d="M11.9167 10.8333H14.0834V22.75H11.9167V10.8333ZM17.3334 3.25H15.1667L11.9167 6.5H14.0834L17.3334 3.25Z" fill="#FF8F00"/>
<path d="M10.8334 3.25H8.66675L11.9167 6.5V10.8333H14.0834V6.5L10.8334 3.25Z" fill="#FFC107"/>
</svg>
