<?xml version="1.0" encoding="utf-8"?>
<!-- Generator: Adobe Illustrator 22.1.0, SVG Export Plug-In . SVG Version: 6.00 Build 0)  -->
<svg version="1.0" id="Layer_1" xmlns="http://www.w3.org/2000/svg" xmlns:xlink="http://www.w3.org/1999/xlink" x="0px" y="0px"
	 viewBox="0 0 150 140" style="enable-background:new 0 0 150 140;" xml:space="preserve">
<style type="text/css">
	.st0{fill:#A5C715;}
	.st1{fill:#FFFFFF;}
	.st2{fill:#1D1D1B;}
	.st3{fill:none;stroke:#1D1D1B;stroke-width:1.6287;stroke-linecap:round;stroke-miterlimit:10;}
	.st4{fill:none;stroke:#1D1D1B;stroke-width:1.6287;stroke-miterlimit:10;}
	.st5{fill:none;stroke:#1D1D1B;stroke-width:1.2605;stroke-linecap:round;stroke-miterlimit:10;}
	.st6{fill:none;stroke:#1D1D1B;stroke-width:1.2605;stroke-miterlimit:10;}
	.st7{fill:none;stroke:#1D1D1B;stroke-width:1.2591;stroke-linecap:round;stroke-miterlimit:10;}
	.st8{fill:none;stroke:#1D1D1B;stroke-width:1.2458;stroke-miterlimit:10;}
	.st9{fill:none;stroke:#1D1D1B;stroke-width:0.7019;stroke-miterlimit:10;}
	.st10{fill:#FFFFFF;stroke:#1D1D1B;stroke-width:1.4273;stroke-miterlimit:10;}
	.st11{fill:none;stroke:#1D1D1B;stroke-width:1.3648;stroke-miterlimit:10;}
	.st12{fill:none;stroke:#1D1D1B;stroke-width:1.4273;stroke-miterlimit:10;}
	.st13{fill:#FFFFFF;stroke:#1D1D1B;stroke-width:1.4273;stroke-linejoin:round;stroke-miterlimit:10;}
	.st14{fill:#FFFFFF;stroke:#1D1D1B;stroke-width:1.4273;stroke-linecap:round;stroke-linejoin:round;stroke-miterlimit:10;}
	.st15{fill:#FFFFFF;stroke:#1D1D1B;stroke-width:1.6;stroke-linecap:round;stroke-miterlimit:10;}
	.st16{fill:#FFFFFF;stroke:#1D1D1B;stroke-width:1.819;stroke-miterlimit:10;}
	.st17{fill:#FFFFFF;stroke:#1D1D1B;stroke-width:1.819;stroke-linecap:round;stroke-linejoin:round;stroke-miterlimit:10;}
	.st18{fill:none;stroke:#1D1D1B;stroke-width:1.819;stroke-linecap:round;stroke-linejoin:round;stroke-miterlimit:10;}
	.st19{fill:none;stroke:#1D1D1B;stroke-width:1.819;stroke-linejoin:round;stroke-miterlimit:10;}
	.st20{fill:none;stroke:#1D1D1B;stroke-width:1.819;stroke-miterlimit:10;}
	.st21{fill:none;stroke:#1D1D1B;stroke-width:1.4273;stroke-linecap:round;stroke-linejoin:round;stroke-miterlimit:10;}
	.st22{fill:none;stroke:#1D1D1B;stroke-width:1.4273;stroke-linecap:round;stroke-miterlimit:10;}
	.st23{fill:#A5C715;stroke:#1D1D1B;stroke-width:1.5;stroke-miterlimit:10;}
	.st24{fill:none;stroke:#1D1D1B;stroke-width:1.4273;stroke-linejoin:round;stroke-miterlimit:10;}
</style>
<g>
	<g>
		<path class="st0" d="M74.5,108.1c-17.9,0-32.4-17.5-32.4-39.1s14.5-39.1,32.4-39.1c17.9,0,32.4,17.5,32.4,39.1
			S92.4,108.1,74.5,108.1z M74.5,37.6c-13.6,0-24.7,14.1-24.7,31.4s11.1,31.4,24.7,31.4c13.6,0,24.7-14.1,24.7-31.4
			S88.2,37.6,74.5,37.6z"/>
	</g>
	<g>
		<path class="st0" d="M109.9,59.6c-2,0-3.6-1.6-3.6-3.6c0-17.4-14.2-31.6-31.7-31.6S42.9,38.5,42.9,55.9c0,2-1.6,3.6-3.6,3.6
			s-3.6-1.6-3.6-3.6c0-21.4,17.5-38.9,39-38.9c21.5,0,39,17.4,39,38.9C113.5,57.9,111.9,59.6,109.9,59.6z"/>
	</g>
	<g>
		<g>
			<path class="st0" d="M88,118.6c-1,0-2-0.6-2.3-1.7c-0.4-1.3,0.2-2.7,1.5-3.1c12-4.1,24.2-17.7,24.2-35.7c0-1.4,1.1-2.5,2.5-2.5
				s2.5,1.1,2.5,2.5c0,20.3-13.9,35.7-27.6,40.4C88.6,118.5,88.3,118.6,88,118.6z"/>
		</g>
		<g>
			<path class="st0" d="M83.9,122.3h-7.8c-2.8,0-5-2.3-5-5v-2.4c0-2.8,2.3-5,5-5h7.8c2.8,0,5,2.3,5,5v2.4
				C88.9,120.1,86.6,122.3,83.9,122.3z"/>
		</g>
	</g>
	<g>
		<path class="st0" d="M112.5,81.6h-0.2c-4.1,0-7.5-3.4-7.5-7.5V57.3c0-4.1,3.4-7.5,7.5-7.5h0.2c4.1,0,7.5,3.4,7.5,7.5v16.8
			C119.9,78.3,116.6,81.6,112.5,81.6z"/>
	</g>
	<g>
		<path class="st0" d="M35.9,81.6h-0.2c-4.1,0-7.5-3.4-7.5-7.5V57.3c0-4.1,3.4-7.5,7.5-7.5h0.2c4.1,0,7.5,3.4,7.5,7.5v16.8
			C43.4,78.3,40,81.6,35.9,81.6z"/>
	</g>
</g>
</svg>
