<svg xmlns="http://www.w3.org/2000/svg" viewBox="0 0 489.7 489.7" fill="#73737E"><path
		d="M52.7 134.75c29.1 0 52.7-23.7 52.7-52.7s-23.6-52.8-52.7-52.8S0 52.95 0 81.95s23.7 52.8 52.7 52.8zm0-81c15.6 0 28.2 12.7 28.2 28.2s-12.7 28.2-28.2 28.2-28.2-12.7-28.2-28.2 12.7-28.2 28.2-28.2zM52.7 297.55c29.1 0 52.7-23.7 52.7-52.7s-23.6-52.7-52.7-52.7S0 215.75 0 244.85s23.7 52.7 52.7 52.7zm0-80.9c15.6 0 28.2 12.7 28.2 28.2s-12.7 28.2-28.2 28.2-28.2-12.6-28.2-28.2 12.7-28.2 28.2-28.2zM52.7 460.45c29.1 0 52.7-23.7 52.7-52.7 0-29.1-23.7-52.7-52.7-52.7S0 378.75 0 407.75c0 29 23.7 52.7 52.7 52.7zm0-81c15.6 0 28.2 12.7 28.2 28.2 0 15.6-12.7 28.2-28.2 28.2s-28.2-12.7-28.2-28.2a28.3 28.3 0 0 1 28.2-28.2zM175.9 94.25h301.5a12.3 12.3 0 1 0 0-24.6H175.9a12.3 12.3 0 1 0 0 24.6zM175.9 257.15h301.5a12.3 12.3 0 1 0 0-24.6H175.9a12.3 12.3 0 1 0 0 24.6zM175.9 419.95h301.5a12.3 12.3 0 1 0 0-24.6H175.9a12.3 12.3 0 1 0 0 24.6z"/></svg>