<svg viewBox="0 0 20 12" fill="none" xmlns="http://www.w3.org/2000/svg"><path
		d="M19.53.83c.15-.47 0-.8-.66-.8H16.7c-.55 0-.8.29-.95.61 0 0-1.12 2.73-2.7 4.5-.5.52-.73.69-1 .69-.16 0-.35-.17-.35-.64V.8c0-.55-.17-.81-.63-.81H7.63a.53.53 0 0 0-.56.51c0 .54.79.66.87 2.16V5.9c0 .7-.12.84-.4.84C6.8 6.75 5 3.99 3.92.85 3.7.23 3.49 0 2.94 0H.74C.11 0 0 .3 0 .62 0 1.2.74 4.1 3.45 7.94c1.8 2.63 4.37 4.04 6.67 4.04 1.4 0 1.57-.32 1.57-.86V9.14c0-.64.13-.75.57-.75.32 0 .9.17 2.19 1.43C15.93 11.32 16.18 12 17 12h2.18c.64 0 .93-.32.76-.94-.19-.62-.9-1.52-1.84-2.58-.5-.6-1.27-1.26-1.5-1.58-.32-.43-.24-.6 0-.99-.02 0 2.64-3.8 2.92-5.08z" fill="#4680C2"/></svg>