<?xml version="1.0" encoding="utf-8"?>
<!-- Generator: Adobe Illustrator 22.1.0, SVG Export Plug-In . SVG Version: 6.00 Build 0)  -->
<svg version="1.0" id="Layer_1" xmlns="http://www.w3.org/2000/svg" xmlns:xlink="http://www.w3.org/1999/xlink" x="0px" y="0px"
	 viewBox="0 0 319 140" style="enable-background:new 0 0 319 140;" xml:space="preserve">
<style type="text/css">
	.st0{fill:#A5C715;}
	.st1{fill:#FFFFFF;}
	.st2{fill:#1D1D1B;}
	.st3{fill:none;stroke:#1D1D1B;stroke-width:1.6287;stroke-linecap:round;stroke-miterlimit:10;}
	.st4{fill:none;stroke:#1D1D1B;stroke-width:1.6287;stroke-miterlimit:10;}
	.st5{fill:none;stroke:#1D1D1B;stroke-width:1.2605;stroke-linecap:round;stroke-miterlimit:10;}
	.st6{fill:none;stroke:#1D1D1B;stroke-width:1.2605;stroke-miterlimit:10;}
	.st7{fill:none;stroke:#1D1D1B;stroke-width:1.2591;stroke-linecap:round;stroke-miterlimit:10;}
	.st8{fill:none;stroke:#1D1D1B;stroke-width:1.2458;stroke-miterlimit:10;}
	.st9{fill:none;stroke:#1D1D1B;stroke-width:0.7019;stroke-miterlimit:10;}
	.st10{fill:#FFFFFF;stroke:#1D1D1B;stroke-width:1.4273;stroke-miterlimit:10;}
	.st11{fill:none;stroke:#1D1D1B;stroke-width:1.3648;stroke-miterlimit:10;}
	.st12{fill:none;stroke:#1D1D1B;stroke-width:1.4273;stroke-miterlimit:10;}
	.st13{fill:#FFFFFF;stroke:#1D1D1B;stroke-width:1.4273;stroke-linejoin:round;stroke-miterlimit:10;}
	.st14{fill:#FFFFFF;stroke:#1D1D1B;stroke-width:1.4273;stroke-linecap:round;stroke-linejoin:round;stroke-miterlimit:10;}
	.st15{fill:#FFFFFF;stroke:#1D1D1B;stroke-width:1.6;stroke-linecap:round;stroke-miterlimit:10;}
	.st16{fill:#FFFFFF;stroke:#1D1D1B;stroke-width:1.819;stroke-miterlimit:10;}
	.st17{fill:#FFFFFF;stroke:#1D1D1B;stroke-width:1.819;stroke-linecap:round;stroke-linejoin:round;stroke-miterlimit:10;}
	.st18{fill:none;stroke:#1D1D1B;stroke-width:1.819;stroke-linecap:round;stroke-linejoin:round;stroke-miterlimit:10;}
	.st19{fill:none;stroke:#1D1D1B;stroke-width:1.819;stroke-linejoin:round;stroke-miterlimit:10;}
	.st20{fill:none;stroke:#1D1D1B;stroke-width:1.819;stroke-miterlimit:10;}
	.st21{fill:none;stroke:#1D1D1B;stroke-width:1.4273;stroke-linecap:round;stroke-linejoin:round;stroke-miterlimit:10;}
	.st22{fill:none;stroke:#1D1D1B;stroke-width:1.4273;stroke-linecap:round;stroke-miterlimit:10;}
	.st23{fill:#A5C715;stroke:#1D1D1B;stroke-width:1.5;stroke-miterlimit:10;}
	.st24{fill:none;stroke:#1D1D1B;stroke-width:1.4273;stroke-linejoin:round;stroke-miterlimit:10;}
</style>
<g>
	<path class="st2" d="M41.4,47.6L48,61c0.2,0.4,0.6,0.7,1,0.7l14.8,2.1c1.1,0.2,1.5,1.5,0.7,2.2L53.8,76.5c-0.3,0.3-0.4,0.7-0.4,1.2
		l2.5,14.7c0.2,1.1-0.9,1.9-1.9,1.4l-13.2-6.9c-0.4-0.2-0.8-0.2-1.2,0l-13.2,6.9c-1,0.5-2.1-0.3-1.9-1.4L27,77.7
		c0.1-0.4-0.1-0.9-0.4-1.2L16,66.1c-0.8-0.8-0.3-2.1,0.7-2.2l14.8-2.1c0.4-0.1,0.8-0.3,1-0.7L39,47.6C39.5,46.7,40.9,46.7,41.4,47.6
		z"/>
	<path class="st2" d="M103.1,47.6l6.6,13.4c0.2,0.4,0.6,0.7,1,0.7l14.8,2.1c1.1,0.2,1.5,1.5,0.7,2.2l-10.7,10.4
		c-0.3,0.3-0.4,0.7-0.4,1.2l2.5,14.7c0.2,1.1-0.9,1.9-1.9,1.4l-13.2-6.9c-0.4-0.2-0.8-0.2-1.2,0l-13.2,6.9c-1,0.5-2.1-0.3-1.9-1.4
		l2.5-14.7c0.1-0.4-0.1-0.9-0.4-1.2L77.7,66.1c-0.8-0.8-0.3-2.1,0.7-2.2l14.8-2.1c0.4-0.1,0.8-0.3,1-0.7l6.6-13.4
		C101.3,46.7,102.7,46.7,103.1,47.6z"/>
	<path class="st2" d="M165.7,47.6l6.6,13.4c0.2,0.4,0.6,0.7,1,0.7l14.8,2.1c1.1,0.2,1.5,1.5,0.7,2.2L178,76.5
		c-0.3,0.3-0.4,0.7-0.4,1.2l2.5,14.7c0.2,1.1-0.9,1.9-1.9,1.4l-13.2-6.9c-0.4-0.2-0.8-0.2-1.2,0l-13.2,6.9c-1,0.5-2.1-0.3-1.9-1.4
		l2.5-14.7c0.1-0.4-0.1-0.9-0.4-1.2l-10.7-10.4c-0.8-0.8-0.3-2.1,0.7-2.2l14.8-2.1c0.4-0.1,0.8-0.3,1-0.7l6.6-13.4
		C163.8,46.7,165.2,46.7,165.7,47.6z"/>
	<path class="st2" d="M225.9,47.6l6.6,13.4c0.2,0.4,0.6,0.7,1,0.7l14.8,2.1c1.1,0.2,1.5,1.5,0.7,2.2l-10.7,10.4
		c-0.3,0.3-0.4,0.7-0.4,1.2l2.5,14.7c0.2,1.1-0.9,1.9-1.9,1.4l-13.2-6.9c-0.4-0.2-0.8-0.2-1.2,0l-13.2,6.9c-1,0.5-2.1-0.3-1.9-1.4
		l2.5-14.7c0.1-0.4-0.1-0.9-0.4-1.2l-10.7-10.4c-0.8-0.8-0.3-2.1,0.7-2.2l14.8-2.1c0.4-0.1,0.8-0.3,1-0.7l6.6-13.4
		C224,46.7,225.4,46.7,225.9,47.6z"/>
	<path class="st2" d="M288.4,47.6L295,61c0.2,0.4,0.6,0.7,1,0.7l14.8,2.1c1.1,0.2,1.5,1.5,0.7,2.2l-10.7,10.4
		c-0.3,0.3-0.4,0.7-0.4,1.2l2.5,14.7c0.2,1.1-0.9,1.9-1.9,1.4l-13.2-6.9c-0.4-0.2-0.8-0.2-1.2,0l-13.2,6.9c-1,0.5-2.1-0.3-1.9-1.4
		l2.5-14.7c0.1-0.4-0.1-0.9-0.4-1.2L263,66.1c-0.8-0.8-0.3-2.1,0.7-2.2l14.8-2.1c0.4-0.1,0.8-0.3,1-0.7l6.6-13.4
		C286.5,46.7,287.9,46.7,288.4,47.6z"/>
</g>
</svg>
