<svg width="15" height="15" viewBox="0 0 15 15" fill="none" xmlns="http://www.w3.org/2000/svg">
<path d="M13.8822 13.1452L13.8821 13.1452L13.8779 13.1501C13.8454 13.1872 13.8141 13.2253 13.7893 13.2556L13.787 13.2583C13.7619 13.2889 13.7426 13.3123 13.7248 13.333C13.3687 13.7181 13.0132 13.9739 12.6199 14.1381C12.222 14.3042 11.7525 14.39 11.1521 14.39C9.10139 14.39 6.65689 13.2241 4.22564 10.8027C1.78017 8.3671 0.61 5.8877 0.61 3.88596C0.61 3.25624 0.698019 2.77729 0.866415 2.37646C1.03295 1.98006 1.2929 1.62474 1.68763 1.26149L1.86299 1.10775L1.86299 1.10775L1.86397 1.10689C2.28611 0.735169 2.65701 0.605648 2.94226 0.610116L2.94366 0.610134C3.26387 0.614412 3.63107 0.77566 3.99215 1.30304L3.99213 1.30306L3.99535 1.30766L5.59173 3.59385L5.59231 3.59467C5.78321 3.86711 5.861 4.12564 5.85662 4.34335C5.85244 4.55046 5.77394 4.76702 5.56221 4.97918L5.00498 5.53752C4.85051 5.6923 4.6951 5.91315 4.66989 6.20786C4.64527 6.49569 4.75513 6.73639 4.87383 6.91401C5.20589 7.43225 5.78556 8.0718 6.32275 8.61006C6.8559 9.14428 7.65372 9.85408 8.11214 10.1617C8.29259 10.2869 8.53519 10.397 8.8243 10.3724C9.11735 10.3475 9.34018 10.1943 9.49803 10.0361L10.0553 9.47776C10.2669 9.26569 10.483 9.187 10.6897 9.18229C10.9069 9.17735 11.1646 9.25401 11.4361 9.44188C11.4365 9.44213 11.4369 9.44238 11.4372 9.44263L13.679 11.0105L13.679 11.0105L13.6833 11.0135C14.2448 11.3991 14.39 11.7454 14.39 12.0498C14.39 12.3448 14.2554 12.7269 13.8822 13.1452Z" stroke="#73737E" stroke-width="1.22"/>
</svg>
