<svg width="17" height="17" viewBox="0 0 17 17" fill="none" xmlns="http://www.w3.org/2000/svg">
<path d="M15.7938 14.9521L15.7938 14.9521L15.7895 14.9569C15.7536 14.9981 15.7188 15.0404 15.6905 15.0749L15.6881 15.0777C15.6594 15.1127 15.6367 15.1402 15.6154 15.1649C15.205 15.6089 14.7926 15.9068 14.3339 16.0982C13.8706 16.2916 13.3273 16.39 12.6391 16.39C10.2851 16.39 7.49524 15.0531 4.73166 12.3007C1.95186 9.5321 0.61 6.7026 0.61 4.40408C0.61 3.68281 0.71082 3.12867 0.906952 2.66181C1.10121 2.19942 1.40381 1.78728 1.85829 1.36918L1.95536 1.28408L2.05777 1.19429L2.05875 1.19343C2.54715 0.763363 2.98633 0.604667 3.33583 0.610141L3.33723 0.610159C3.73274 0.615443 4.17123 0.816932 4.59155 1.43083L4.59153 1.43085L4.59474 1.43545L6.40398 4.02646L6.40456 4.02729C6.6286 4.34701 6.72421 4.65659 6.71881 4.9241C6.71363 5.18101 6.61531 5.44611 6.36141 5.70052L5.72988 6.33331C5.56236 6.50116 5.39992 6.7346 5.37358 7.04251C5.34782 7.34371 5.4626 7.5983 5.59173 7.79133C5.96298 8.37097 6.61492 9.09097 7.22335 9.70062C7.82675 10.3052 8.72692 11.1055 9.23962 11.4494C9.435 11.5851 9.69144 11.7001 9.99398 11.6743C10.3003 11.6483 10.536 11.488 10.7069 11.3168L11.3384 10.684C11.5922 10.4297 11.8567 10.3311 12.1132 10.3253C12.3801 10.3192 12.6888 10.4135 13.0075 10.6341C13.0079 10.6343 13.0082 10.6346 13.0085 10.6348L15.5495 12.4119L15.5495 12.4119L15.5538 12.4149C16.2046 12.8619 16.39 13.2766 16.39 13.6565C16.39 14.0159 16.2263 14.4673 15.7938 14.9521Z" stroke="#99989D" stroke-width="1.22"/>
</svg>
