<svg width="11" height="11" viewBox="0 0 11 11" fill="none" xmlns="http://www.w3.org/2000/svg">
<path d="M10.141 9.60478L10.1409 9.60476L10.1374 9.60876C10.1131 9.63661 10.0897 9.66508 10.0715 9.6872L10.0698 9.68933C10.0516 9.71151 10.038 9.728 10.0256 9.74239C9.76882 10.0199 9.51437 10.2024 9.23432 10.3193C8.95047 10.4378 8.61342 10.5 8.17821 10.5C6.69364 10.5 4.9136 9.65512 3.13597 7.8847C1.34798 6.10389 0.5 4.2983 0.5 2.8497C0.5 2.39282 0.563857 2.04894 0.683927 1.76313C0.802478 1.48094 0.987939 1.2265 1.27279 0.964278L1.40091 0.85195L1.40091 0.851951L1.40171 0.851243C1.70482 0.584341 1.96463 0.497068 2.15683 0.500078L2.15798 0.500094C2.37168 0.502949 2.62651 0.609061 2.88412 0.985319L2.88411 0.985331L2.88674 0.989102L4.05742 2.66564L4.05789 2.66632C4.19292 2.85901 4.24514 3.03786 4.2422 3.18406C4.23942 3.32158 4.18792 3.46765 4.04168 3.61419L3.63304 4.02364C3.51488 4.14204 3.39205 4.31493 3.37211 4.54795C3.35267 4.77518 3.43952 4.96349 3.53007 5.09911C3.77687 5.48414 4.20521 5.95626 4.59941 6.35125C4.99094 6.74357 5.57863 7.26677 5.91923 7.4954C6.05748 7.59129 6.24736 7.67832 6.47562 7.6589C6.70721 7.6392 6.88157 7.51818 7.0025 7.39701L7.41114 6.98756C7.55731 6.84109 7.70305 6.78946 7.84032 6.78634C7.98621 6.78301 8.16445 6.83447 8.35647 6.9673C8.35675 6.96749 8.35703 6.96769 8.35731 6.96788L10.0011 8.11752L10.0011 8.11754L10.0046 8.11995C10.407 8.39629 10.5 8.63585 10.5 8.83655C10.5 9.03665 10.4085 9.30485 10.141 9.60478Z" stroke="black"/>
</svg>
