<?xml version="1.0" encoding="utf-8"?>
<!-- Generator: Adobe Illustrator 22.1.0, SVG Export Plug-In . SVG Version: 6.00 Build 0)  -->
<svg version="1.0" id="Layer_1" xmlns="http://www.w3.org/2000/svg" xmlns:xlink="http://www.w3.org/1999/xlink" x="0px" y="0px"
	 viewBox="0 0 150 140" style="enable-background:new 0 0 150 140;" xml:space="preserve">
<style type="text/css">
	.st0{fill:#A5C715;}
	.st1{fill:#FFFFFF;}
	.st2{fill:#1D1D1B;}
	.st3{fill:none;stroke:#1D1D1B;stroke-width:1.6287;stroke-linecap:round;stroke-miterlimit:10;}
	.st4{fill:none;stroke:#1D1D1B;stroke-width:1.6287;stroke-miterlimit:10;}
	.st5{fill:none;stroke:#1D1D1B;stroke-width:1.2605;stroke-linecap:round;stroke-miterlimit:10;}
	.st6{fill:none;stroke:#1D1D1B;stroke-width:1.2605;stroke-miterlimit:10;}
	.st7{fill:none;stroke:#1D1D1B;stroke-width:1.2591;stroke-linecap:round;stroke-miterlimit:10;}
	.st8{fill:none;stroke:#1D1D1B;stroke-width:1.2458;stroke-miterlimit:10;}
	.st9{fill:none;stroke:#1D1D1B;stroke-width:0.7019;stroke-miterlimit:10;}
	.st10{fill:#FFFFFF;stroke:#1D1D1B;stroke-width:1.4273;stroke-miterlimit:10;}
	.st11{fill:none;stroke:#1D1D1B;stroke-width:1.3648;stroke-miterlimit:10;}
	.st12{fill:none;stroke:#1D1D1B;stroke-width:1.4273;stroke-miterlimit:10;}
	.st13{fill:#FFFFFF;stroke:#1D1D1B;stroke-width:1.4273;stroke-linejoin:round;stroke-miterlimit:10;}
	.st14{fill:#FFFFFF;stroke:#1D1D1B;stroke-width:1.4273;stroke-linecap:round;stroke-linejoin:round;stroke-miterlimit:10;}
	.st15{fill:#FFFFFF;stroke:#1D1D1B;stroke-width:1.6;stroke-linecap:round;stroke-miterlimit:10;}
	.st16{fill:#FFFFFF;stroke:#1D1D1B;stroke-width:1.819;stroke-miterlimit:10;}
	.st17{fill:#FFFFFF;stroke:#1D1D1B;stroke-width:1.819;stroke-linecap:round;stroke-linejoin:round;stroke-miterlimit:10;}
	.st18{fill:none;stroke:#1D1D1B;stroke-width:1.819;stroke-linecap:round;stroke-linejoin:round;stroke-miterlimit:10;}
	.st19{fill:none;stroke:#1D1D1B;stroke-width:1.819;stroke-linejoin:round;stroke-miterlimit:10;}
	.st20{fill:none;stroke:#1D1D1B;stroke-width:1.819;stroke-miterlimit:10;}
	.st21{fill:none;stroke:#1D1D1B;stroke-width:1.4273;stroke-linecap:round;stroke-linejoin:round;stroke-miterlimit:10;}
	.st22{fill:none;stroke:#1D1D1B;stroke-width:1.4273;stroke-linecap:round;stroke-miterlimit:10;}
	.st23{fill:#A5C715;stroke:#1D1D1B;stroke-width:1.5;stroke-miterlimit:10;}
	.st24{fill:none;stroke:#1D1D1B;stroke-width:1.4273;stroke-linejoin:round;stroke-miterlimit:10;}
</style>
<path d="M122.4,35c-5.1-7.5-14.5-11.3-25-10.1C86.3,26.2,78.5,32,74.6,36.4c-4-4.3-11.8-10.2-22.8-11.5c-10.5-1.2-19.8,2.6-25,10.1
	c-3.7,5.4-8.3,17.4,2.3,37.3c12.9,24.3,42.9,42.1,44.1,42.9l1.4,0.8v0l0,0l0,0v0l1.4-0.8c1.3-0.7,31.2-18.6,44.1-42.9
	C130.6,52.5,126,40.4,122.4,35z M112.3,68.2c-9.5,17.8-30,32.4-37.7,37.5c-7.8-5.1-28.3-19.7-37.7-37.5C30.7,56.7,29.7,46.4,34,40
	c2.9-4.2,7.8-6.5,13.8-6.5c0.9,0,1.9,0.1,2.9,0.2c13.3,1.5,20.6,12.4,21,12.9c1.5,1.8,2.3,3.3,2.8,4.4v0.1c0,0,0,0,0-0.1
	c0,0,0,0,0,0.1V51c0.5-1.1,1.3-2.6,2.8-4.4c0.4-0.5,7.6-11.4,21-12.9c1-0.1,1.9-0.2,2.9-0.2c6,0,11,2.3,13.8,6.5
	C119.4,46.4,118.4,56.7,112.3,68.2z"/>
</svg>
