<svg viewBox="0 0 26 26" fill="none" xmlns="http://www.w3.org/2000/svg"><path d="M11.14 9.16H9.06l1.3-8.09h2.08l-1.3 8.09zm7.55-7.89a5.11 5.11 0 0 0-1.87-.35c-2.06 0-3.5 1.1-3.51 2.68-.02 1.16 1.03 1.8 1.82 2.2.8.39 1.08.65 1.08 1 0 .54-.65.8-1.25.8-.83 0-1.28-.14-1.95-.44l-.28-.13-.29 1.82c.49.22 1.39.42 2.32.43 2.19 0 3.61-1.08 3.63-2.76 0-.92-.55-1.63-1.75-2.2-.73-.37-1.17-.62-1.17-1 0-.35.37-.7 1.2-.7.67-.02 1.17.15 1.55.31l.18.09.29-1.75zm2.77 5.03l.83-2.27.27-.77.15.7.48 2.33h-1.73zm2.57-5.23h-1.61c-.5 0-.88.15-1.1.67l-3.09 7.42h2.19l.44-1.21h2.67l.25 1.2h1.93l-1.68-8.08zm-16.71 0L5.28 6.6l-.22-1.12a6.18 6.18 0 0 0-2.88-3.4l1.86 7.08h2.2l3.28-8.08h-2.2z" fill="#00579F"/><path d="M3.38 1.07H.03L0 1.23c2.61.68 4.34 2.3 5.06 4.24l-.73-3.72c-.12-.52-.5-.66-.95-.68z" fill="#FAA61A"/><path d="M17.17 14.77h-5.6v9.89h5.6v-9.89z" fill="#FF5F00"/><path d="M11.92 19.71c0-1.93.9-3.75 2.44-4.94a6.49 6.49 0 0 0-8.99 1.06 6.2 6.2 0 0 0 1.08 8.83 6.5 6.5 0 0 0 7.91 0 6.23 6.23 0 0 1-2.44-4.95z" fill="#EB001B"/><path d="M24.73 19.71a6.35 6.35 0 0 1-6.4 6.29 6.48 6.48 0 0 1-3.96-1.34 6.2 6.2 0 0 0 0-9.89 6.49 6.49 0 0 1 8.99 1.06 6.2 6.2 0 0 1 1.37 3.88z" fill="#F79E1B"/></svg>