<svg width="395" height="167" viewBox="0 0 395 167" fill="none" xmlns="http://www.w3.org/2000/svg">
<g clip-path="url(#clip0)">
<path d="M120.474 90.4661C120.471 90.4464 120.464 90.4282 120.459 90.409C120.455 90.3948 120.452 90.3806 120.448 90.3668C120.431 90.3137 120.406 90.2632 120.375 90.2167C120.371 90.2107 120.366 90.2061 120.362 90.2001C120.332 90.1603 120.298 90.1242 120.26 90.0926C120.249 90.0828 120.237 90.0738 120.225 90.0648C120.214 90.057 120.205 90.0474 120.194 90.0404C120.156 90.0167 120.116 89.9972 120.074 89.9823L120.074 89.9821L102.446 83.7063L91.3723 12.5287C91.3693 12.5089 91.3619 12.4907 91.3571 12.4715C91.3533 12.4573 91.3503 12.4431 91.3458 12.4293C91.3286 12.3763 91.3044 12.3258 91.2736 12.2792C91.2696 12.2733 91.2642 12.2686 91.26 12.2627C91.2306 12.2228 91.1964 12.1867 91.1583 12.1551C91.1467 12.1453 91.1353 12.1364 91.1231 12.1274C91.1123 12.1196 91.1033 12.11 91.0921 12.103C91.0545 12.0795 91.0144 12.0601 90.9726 12.0452L90.9716 12.0446L73.062 5.66852C72.938 5.62421 72.803 5.62105 72.6771 5.65953L39.5976 15.741C39.591 15.743 39.586 15.7476 39.5796 15.7498C39.5275 15.7672 39.4779 15.7914 39.4321 15.822C39.4287 15.8241 39.4249 15.8257 39.4215 15.828C39.3762 15.8611 39.3356 15.9003 39.3008 15.9445C39.2934 15.9537 39.2864 15.9625 39.2796 15.9721C39.2476 16.0152 39.2215 16.0625 39.2019 16.1126L0.0365054 120.389C0.0203785 120.433 0.00944555 120.479 0.00392473 120.526C0.00213545 120.54 0.00232552 120.553 0.00152592 120.567C-0.000814805 120.602 5.16294e-05 120.638 0.0041148 120.674C0.00511103 120.682 0.00351182 120.691 0.00472434 120.699L3.33697 142.118C3.35392 142.228 3.40011 142.33 3.47065 142.416C3.5412 142.501 3.63347 142.565 3.73771 142.602L21.6473 148.979C21.6489 148.979 21.6507 148.979 21.6523 148.979C21.7096 148.999 21.7696 148.969 21.8301 148.971C21.8377 148.972 21.8453 148.936 21.8531 148.936H21.8613C21.8699 148.936 21.8779 148.973 21.8863 148.973C21.8995 148.972 21.9125 148.964 21.9257 148.962C21.9614 148.958 21.9958 148.936 22.0294 148.936H22.0322L62.2011 136.719L65.7652 159.642C65.782 159.752 65.8281 159.856 65.8985 159.942C65.969 160.028 66.0613 160.094 66.1659 160.133L84.0751 166.511C84.0806 166.513 84.0865 166.489 84.0918 166.491C84.1539 166.504 84.2178 166.508 84.2809 166.501H84.46L113.423 157.685C113.564 157.644 113.686 157.552 113.764 157.428C113.843 157.304 113.874 157.155 113.851 157.01L108.502 122.632L124.201 117.848C124.343 117.805 124.464 117.713 124.542 117.587C124.621 117.462 124.651 117.313 124.629 117.167L120.474 90.4661ZM117.91 90.5151L104.161 94.7053L102.718 85.1063L117.91 90.5151ZM72.8412 6.89323L88.8079 12.5776L57.7013 22.0577L41.7343 16.3736L72.8412 6.89323ZM40.1392 17.1092L56.892 23.0733L56.6328 23.7635L18.1579 126.2L9.47146 123.108L1.40574 120.236L40.1392 17.1092ZM4.49396 141.568L1.37636 121.529L12.3396 125.432L17.97 127.437L21.0881 147.476L4.49396 141.568ZM66.9222 159.105L63.3875 136.384L78.3527 131.823L83.5159 165.012L66.9222 159.105ZM107.634 121.616C107.493 121.659 107.372 121.751 107.293 121.877C107.215 122.002 107.184 122.151 107.207 122.297L112.556 156.677L84.7787 165.142L79.4571 130.935C79.4379 130.816 79.3835 130.705 79.301 130.616C79.2938 130.608 79.2884 130.599 79.2808 130.591C79.2681 130.579 79.2523 130.574 79.2384 130.562C79.2185 130.546 79.1997 130.519 79.1777 130.519H79.2634V130.503C79.2634 130.475 79.1274 130.458 79.0783 130.443C79.0635 130.438 79.0267 130.437 79.0115 130.433C78.9717 130.425 78.9313 130.42 78.8906 130.419C78.8809 130.418 78.8658 130.415 78.856 130.415C78.8498 130.415 78.8411 130.418 78.8349 130.418C78.7807 130.419 78.7269 130.427 78.6748 130.441L62.5142 135.311C62.4343 135.336 62.3606 135.377 62.2978 135.433L22.3511 147.607L19.1518 127.046L50.8109 42.7564L58.1549 23.2036L90.2679 13.4167L103.017 95.5657L102.989 95.5913V95.5943C102.989 95.6097 103.03 95.6239 103.033 95.6391C103.044 95.6671 103.057 95.6943 103.071 95.7206C103.078 95.7398 103.097 95.757 103.107 95.7754C103.118 95.7965 103.129 95.817 103.142 95.8367C103.155 95.8536 103.169 95.8697 103.184 95.8851C103.198 95.9034 103.213 95.9209 103.228 95.9377C103.247 95.9559 103.269 96.0154 103.29 96.0313C103.304 96.042 103.316 96.1096 103.332 96.1096H103.332L103.333 96.065C103.378 96.0849 103.426 96.0986 103.475 96.1057C103.49 96.1105 103.506 96.1021 103.521 96.1057C103.557 96.1123 103.593 96.1155 103.629 96.1154C103.639 96.1158 103.649 96.1168 103.66 96.1168C103.666 96.1168 103.673 96.1125 103.679 96.1123C103.733 96.1113 103.787 96.1032 103.839 96.0881L119.37 91.3545L123.334 116.83L107.634 121.616Z" fill="#3D8E65"/>
<path d="M68.728 61.0962C68.714 60.9547 68.6512 60.8225 68.5505 60.7221C68.4498 60.6217 68.3174 60.5594 68.1759 60.5458C68.0344 60.5322 67.8925 60.5681 67.7745 60.6474C67.6565 60.7267 67.5697 60.8445 67.5289 60.9807C67.0544 62.5642 52.1441 97.7565 44.3264 116.144C44.278 116.258 44.2652 116.384 44.2898 116.506C44.3143 116.627 44.3751 116.738 44.464 116.825C44.553 116.911 44.666 116.969 44.7882 116.989C44.9104 117.01 45.0361 116.994 45.1487 116.942C45.3056 116.869 60.8708 109.69 63.7881 108.595C67.3174 107.316 71.0476 106.076 74.8751 104.91C75.0165 104.866 75.1376 104.774 75.2161 104.649C75.2947 104.523 75.3254 104.374 75.3026 104.228L69.3128 65.7275C69.0854 64.2667 68.8885 62.7085 68.728 61.0962ZM63.3632 107.443C60.8999 108.367 50.0516 113.335 46.078 115.162C49.3457 107.473 63.9344 73.1197 67.7841 63.6786C67.8814 64.4444 67.9868 65.1921 68.0995 65.9164L74.0075 103.891C70.3383 105.018 66.7618 106.211 63.3632 107.443Z" fill="#3D8E65"/>
<path d="M223.63 83.141C223.629 83.0588 223.628 82.9775 223.627 82.895C223.616 82.2126 223.597 81.5197 223.567 80.812C223.566 80.7961 223.566 80.7805 223.565 80.7645C223.503 79.3175 223.403 77.8181 223.263 76.2662C223.244 76.0594 223.222 75.8483 223.202 75.6397C223.15 75.0939 223.094 74.5435 223.032 73.985C223.002 73.7131 222.97 73.4386 222.938 73.1638C222.877 72.6484 222.812 72.1278 222.744 71.6021C222.706 71.3113 222.668 71.0207 222.628 70.7268C222.552 70.1741 222.47 69.6135 222.386 69.0497C222.346 68.7859 222.309 68.5253 222.268 68.2587C222.139 67.4297 222.003 66.5917 221.857 65.7393C219.449 51.7661 215.555 40.9811 210.294 33.6975C207.856 30.1262 205.124 27.5741 202.173 26.1118C201.856 25.9553 201.534 25.8106 201.21 25.6711C201.127 25.6355 201.044 25.601 200.961 25.5668C200.66 25.4417 200.356 25.3226 200.048 25.2122C200.023 25.203 199.998 25.1928 199.973 25.1838C199.631 25.0627 199.286 24.9532 198.939 24.8505C198.878 24.8325 198.816 24.8153 198.755 24.7977C198.418 24.7018 198.079 24.6127 197.737 24.5339C197.726 24.5313 197.714 24.5283 197.703 24.5257C197.331 24.4408 196.956 24.3665 196.579 24.3029C196.544 24.2969 196.509 24.2917 196.474 24.2861C196.31 24.2589 196.146 24.2299 195.98 24.2067C195.808 24.1826 195.632 24.1642 195.457 24.1442C195.403 24.1378 195.348 24.1306 195.294 24.1246C194.938 24.0866 194.578 24.056 194.214 24.0355C194.118 24.0299 194.021 24.0279 193.925 24.0235C193.658 24.0117 193.389 24.0044 193.118 24.0017C193.05 24.0011 192.982 23.9961 192.914 23.9961C192.797 23.9961 192.68 23.9971 192.546 23.9993C192.217 24.0129 191.892 24.0398 191.569 24.0728C191.486 24.0814 191.404 24.0914 191.321 24.1012C191.211 24.1142 191.1 24.124 190.991 24.1392C190.855 24.1584 190.721 24.1855 190.585 24.2083C190.493 24.2239 190.401 24.2381 190.309 24.2553C190.024 24.3088 189.742 24.3707 189.462 24.4408C189.425 24.45 189.387 24.4572 189.351 24.4666C189.032 24.5491 188.718 24.6423 188.408 24.7462C188.33 24.7719 188.254 24.8023 188.177 24.8295C187.955 24.9078 187.734 24.9898 187.516 25.0791C187.399 25.1271 187.284 25.1787 187.168 25.2296C186.992 25.3071 186.818 25.3882 186.644 25.4727C186.52 25.5336 186.396 25.5956 186.273 25.6603C186.103 25.7495 185.936 25.8442 185.769 25.9407C185.656 26.0061 185.541 26.0692 185.43 26.138C185.161 26.3025 184.896 26.4747 184.635 26.6582C184.632 26.6602 184.629 26.662 184.626 26.6642C184.416 26.8127 184.209 26.973 184.005 27.1393C183.961 27.1749 183.917 27.21 183.874 27.2466C183.681 27.4075 183.491 27.5754 183.305 27.7522C183.254 27.8 183.205 27.8502 183.155 27.8991C183.014 28.0368 182.875 28.1791 182.738 28.3258C182.677 28.3912 182.615 28.4547 182.554 28.5215C182.402 28.6908 182.252 28.8674 182.104 29.0479C182.067 29.0939 182.027 29.1357 181.99 29.1822C181.931 29.2558 181.874 29.3349 181.815 29.4105C181.794 29.4379 181.773 29.4652 181.752 29.4928C181.644 29.6345 181.537 29.7786 181.431 29.9271C181.415 29.9507 181.398 29.9751 181.381 29.9987C181.083 30.4226 180.794 30.8727 180.515 31.3489C180.461 31.4414 180.406 31.5326 180.352 31.6267C180.295 31.7284 180.238 31.8332 180.182 31.9373C180.115 32.0594 180.048 32.1823 179.982 32.3076C179.932 32.404 179.882 32.5017 179.833 32.5998C179.762 32.7399 179.692 32.8819 179.622 33.0257C179.578 33.1179 179.534 33.2098 179.49 33.3033C179.413 33.4662 179.339 33.6323 179.264 33.7998C179.229 33.8791 179.193 33.9569 179.159 34.0372C179.051 34.287 178.944 34.5407 178.84 34.8003C178.715 35.1021 178.595 35.4134 178.478 35.7292C178.448 35.8124 178.417 35.8959 178.387 35.9798C178.283 36.2724 178.181 36.5694 178.083 36.8738C178.059 36.9508 178.035 37.0291 178.011 37.1068C177.931 37.3653 177.853 37.6279 177.778 37.8947C177.735 38.0456 177.694 38.1979 177.653 38.3512C177.605 38.5317 177.559 38.7149 177.514 38.899C177.479 39.0391 177.441 39.1752 177.408 39.3173C177.405 39.3293 177.405 39.3411 177.403 39.3528C176.893 41.5411 176.544 43.9734 176.36 46.6339C176.359 46.6507 176.356 46.6679 176.357 46.6847C176.313 47.3163 176.279 47.9603 176.254 48.6169C176.044 54.1221 176.609 60.8115 177.934 68.4993C179.211 75.9111 180.881 82.3513 182.899 87.6408C184.917 92.9431 187.324 97.4193 190.056 100.949C192.787 104.407 195.605 106.876 198.431 108.286C201.031 109.589 203.787 110.25 206.623 110.25C206.881 110.25 207.14 110.244 207.417 110.232C210.621 110.013 213.454 109.042 215.838 107.348C218.227 105.648 220.088 102.834 221.358 99.0124C221.816 97.807 222.191 96.5719 222.481 95.3156L222.492 95.2921C222.506 95.2581 222.518 95.2229 222.527 95.1869C222.576 94.9775 222.618 94.7576 222.664 94.5434C222.675 94.4898 222.686 94.4364 222.698 94.3825C223.263 91.6824 223.573 88.6241 223.627 85.2075C223.628 85.141 223.629 85.0741 223.63 85.0071C223.638 84.3961 223.638 83.7741 223.63 83.141ZM208.404 33.1716C208.703 33.5665 208.998 33.9771 209.289 34.4032C214.45 41.5473 218.271 52.1604 220.646 65.9479C220.791 66.7883 220.925 67.6142 221.052 68.431C221.092 68.6902 221.128 68.944 221.167 69.201C221.25 69.7572 221.331 70.3102 221.406 70.8555C221.446 71.1477 221.484 71.4363 221.522 71.7252C221.588 72.2349 221.651 72.7396 221.711 73.2394C221.744 73.52 221.777 73.8 221.808 74.0774C221.866 74.6046 221.92 75.1256 221.97 75.6403C221.992 75.8689 222.016 76.0997 222.036 76.326C222.1 77.0339 222.158 77.7326 222.205 78.4182C222.207 78.4409 222.209 78.4647 222.211 78.4875C222.262 79.2358 222.304 79.9704 222.335 80.6913C222.338 80.7627 222.339 80.8316 222.343 80.9026C222.369 81.5361 222.387 82.1594 222.399 82.7725C222.401 82.8942 222.401 83.0135 222.403 83.1342C222.411 83.7098 222.411 84.2763 222.406 84.8338C222.405 84.9345 222.403 85.0349 222.402 85.135C222.393 85.7488 222.375 86.3525 222.349 86.9431C222.348 86.9691 222.347 86.9957 222.346 87.0217C222.227 89.601 221.947 91.9562 221.505 94.0871C221.496 94.1298 221.487 94.1722 221.478 94.2148C221.427 94.4582 221.367 94.6899 221.311 94.9273L219.182 99.8142C220.104 93.9368 220.791 87.1048 219.12 77.411C216.712 63.4377 212.819 52.6529 207.557 45.3694C205.119 41.7979 202.388 39.246 199.437 37.7836C197.487 36.8225 195.396 36.1793 193.244 35.8785C192.106 35.7222 190.958 35.6529 189.809 35.6713C189.284 35.6928 188.761 35.7398 188.255 35.811C185.975 36.1256 183.803 36.9835 181.924 38.3126C181.92 38.3156 181.894 38.3332 181.89 38.3364C180.897 39.0478 180.01 39.8953 179.253 40.854C178.822 41.3864 178.419 41.9413 178.047 42.5164C178.227 41.3527 178.445 40.2485 178.703 39.204C178.747 39.0293 178.79 38.8546 178.836 38.6829C178.875 38.5324 178.916 38.3833 178.958 38.2356C179.03 37.9796 179.104 37.7262 179.181 37.4774C179.208 37.3914 179.235 37.3057 179.262 37.2208C179.352 36.9432 179.444 36.6706 179.54 36.4031C179.57 36.3192 179.6 36.2359 179.631 36.1531C179.743 35.8509 179.857 35.5525 179.977 35.2643C180.075 35.0181 180.176 34.7779 180.279 34.5409C180.311 34.4651 180.345 34.3913 180.378 34.3166C180.449 34.1571 180.52 33.9988 180.593 33.8438C180.633 33.7568 180.674 33.6713 180.715 33.5859C180.782 33.4468 180.85 33.3097 180.918 33.1746C180.963 33.0859 181.008 32.9972 181.053 32.91C181.118 32.7839 181.185 32.661 181.252 32.5383C181.301 32.4485 181.349 32.3574 181.399 32.2696C181.46 32.1607 181.523 32.0562 181.585 31.9503C181.711 31.736 181.84 31.5272 181.97 31.3239C182.001 31.2756 182.031 31.2258 182.063 31.178C182.148 31.0475 182.235 30.9208 182.323 30.7951C182.353 30.7519 182.383 30.7082 182.413 30.6656C182.503 30.5385 182.595 30.414 182.687 30.2921C182.714 30.2563 182.741 30.2211 182.768 30.1859C182.856 30.071 182.945 29.9583 183.035 29.848C183.171 29.6811 183.31 29.5182 183.451 29.3617C183.509 29.2963 183.569 29.2344 183.628 29.1711C183.749 29.0413 183.872 28.9154 183.996 28.7931C184.043 28.747 184.09 28.6992 184.138 28.654C184.301 28.4985 184.468 28.351 184.636 28.2097C184.685 28.168 184.735 28.1276 184.785 28.087C184.951 27.9525 185.118 27.823 185.287 27.7029C185.303 27.6915 185.318 27.6787 185.334 27.6675C185.583 27.4918 185.837 27.3273 186.093 27.1702C186.168 27.1245 186.245 27.0829 186.32 27.0387C186.503 26.9314 186.688 26.8275 186.876 26.7296C186.965 26.6826 187.056 26.6378 187.147 26.5931C187.33 26.5025 187.515 26.4166 187.702 26.3352C187.789 26.2973 187.875 26.2589 187.962 26.2229C188.181 26.133 188.403 26.0501 188.626 25.9721C188.681 25.9529 188.735 25.9311 188.79 25.9125C189.077 25.8172 189.366 25.7313 189.66 25.6549C189.697 25.6451 189.736 25.6379 189.773 25.6286C190.022 25.5664 190.274 25.5112 190.528 25.4631C190.622 25.4453 190.717 25.4305 190.812 25.4147C191.02 25.3797 191.231 25.3485 191.442 25.323C191.53 25.3124 191.616 25.3016 191.704 25.2928C191.994 25.2632 192.285 25.2388 192.58 25.2266C192.744 25.224 192.908 25.227 193.071 25.2282C193.361 25.2304 193.65 25.2383 193.937 25.2518C193.997 25.2546 194.058 25.256 194.118 25.2594C194.471 25.2794 194.821 25.3082 195.168 25.3457C195.209 25.3501 195.249 25.3557 195.29 25.3603C195.624 25.3987 195.955 25.4449 196.285 25.4988C196.309 25.5028 196.333 25.5064 196.357 25.5106C197.055 25.6295 197.747 25.7866 198.428 25.9811C198.478 25.9957 198.529 26.0097 198.58 26.0246C198.911 26.122 199.24 26.2269 199.565 26.342C199.581 26.3478 199.598 26.3544 199.614 26.3604C199.91 26.4663 200.204 26.5817 200.495 26.7022C200.57 26.7334 200.645 26.7649 200.719 26.7967C201.026 26.9282 201.329 27.0649 201.629 27.2126C202.338 27.5658 203.018 27.9741 203.663 28.4336C205.327 29.6133 206.907 31.1927 208.404 33.1716ZM215.126 106.347C212.929 107.908 210.308 108.804 207.35 109.006C204.447 109.126 201.63 108.516 198.98 107.188C196.316 105.858 193.638 103.503 191.024 100.193C188.369 96.7634 186.022 92.3933 184.047 87.2035C182.057 81.9878 180.407 75.6247 179.144 68.2908C177.834 60.687 177.274 54.0835 177.481 48.6635C177.506 48.0129 177.54 47.3756 177.583 46.7514C178.046 44.5508 179.119 42.9849 180.211 41.6221C180.901 40.7469 181.712 39.9736 182.618 39.3253C184.342 38.1045 186.333 37.3162 188.426 37.0269C188.892 36.9615 189.375 36.9182 189.844 36.8986C190.924 36.88 192.003 36.9455 193.073 37.0945C195.096 37.3773 197.061 37.9815 198.893 38.8842C201.651 40.2514 204.225 42.6663 206.552 46.0751C211.713 53.2191 215.534 63.8322 217.91 77.6197C219.816 88.6817 218.645 95.6592 217.512 102.407C217.4 103.074 217.29 103.737 217.182 104.396C216.587 105.135 215.895 105.791 215.126 106.347Z" fill="#3D8E65"/>
<path d="M257.442 63.8776C255.278 51.3176 251.379 40.1519 245.854 30.6904C240.169 20.9536 232.523 13.2147 223.123 7.68521C214.222 2.58578 203.618 0 191.608 0C190.819 0 190.012 0.011201 189.193 0.0339832C170.455 1.07404 156.819 8.15226 148.658 21.078C145.79 25.7369 143.684 30.9155 142.34 36.614C142.315 36.6598 142.296 36.7086 142.283 36.7593L139.547 48.4311C138.422 53.2295 137.846 58.423 137.82 63.9739C137.794 69.5244 138.317 75.432 139.39 81.6589C141.18 91.4387 143.934 100.307 147.575 108.016C151.227 115.755 156.047 122.64 161.897 128.475C162.404 128.992 162.919 129.495 163.439 129.99C163.549 130.094 163.658 130.199 163.769 130.302C164.278 130.78 164.794 131.247 165.315 131.704C165.405 131.783 165.496 131.858 165.586 131.936C166.062 132.346 166.544 132.748 167.03 133.141C167.126 133.218 167.22 133.297 167.316 133.373C167.844 133.793 168.378 134.202 168.919 134.601C169.06 134.706 169.202 134.808 169.344 134.911C169.858 135.284 170.375 135.649 170.9 136.003C171.007 136.075 171.115 136.146 171.223 136.218C171.704 136.537 172.189 136.848 172.679 137.151C172.874 137.272 173.07 137.392 173.266 137.512C173.777 137.82 174.293 138.121 174.814 138.413C175.047 138.544 175.284 138.67 175.519 138.797C175.86 138.981 176.204 139.163 176.55 139.34C176.907 139.524 177.265 139.704 177.626 139.88C178.006 140.065 178.388 140.246 178.772 140.423C179.119 140.582 179.468 140.738 179.819 140.889C180.019 140.976 180.22 141.06 180.421 141.145C181.107 141.433 181.799 141.708 182.497 141.971C182.611 142.013 182.725 142.057 182.839 142.099C184.185 142.594 185.557 143.04 186.955 143.438C186.971 143.443 186.987 143.447 187.003 143.452C189.368 144.122 191.771 144.651 194.199 145.035C194.313 145.053 194.428 145.072 194.542 145.09C194.819 145.132 195.092 145.183 195.371 145.222C195.551 145.247 195.737 145.265 195.919 145.288C196.45 145.359 196.984 145.424 197.521 145.483C197.83 145.516 198.142 145.545 198.454 145.574C198.942 145.621 199.433 145.663 199.927 145.7C200.139 145.715 200.348 145.733 200.56 145.747C201.276 145.795 201.999 145.831 202.727 145.857C202.903 145.863 203.08 145.87 203.257 145.876C204.027 145.898 204.8 145.916 205.581 145.916H205.582C206.326 145.916 207.087 145.904 207.86 145.882C208.458 145.85 209.053 145.811 209.643 145.765C209.709 145.76 209.773 145.753 209.839 145.748C211.526 145.617 213.177 145.44 214.766 145.217C223.856 143.942 231.564 141.11 237.676 136.799C240.64 134.711 243.298 132.22 245.573 129.397C245.788 129.13 245.997 128.857 246.206 128.583C246.226 128.558 246.246 128.534 246.265 128.508C246.487 128.215 246.704 127.917 246.92 127.617C246.977 127.537 247.037 127.458 247.093 127.378C247.28 127.113 247.461 126.844 247.641 126.575C247.716 126.464 247.793 126.355 247.867 126.242C248.116 125.864 248.358 125.482 248.594 125.095C251.382 120.606 253.446 115.552 254.73 110.073L257.467 98.4014C257.473 98.3736 257.476 98.3455 257.478 98.3171C257.994 96.1014 258.385 93.8584 258.649 91.5986C259.607 83.4142 259.201 74.0874 257.442 63.8776ZM253.688 109.142L253.535 109.793C252.281 115.142 250.268 120.072 247.549 124.451C247.318 124.829 247.082 125.202 246.84 125.569C246.784 125.654 246.726 125.737 246.669 125.821C246.475 126.112 246.279 126.403 246.077 126.688C246.053 126.722 246.029 126.754 246.005 126.788C238.643 137.112 226.719 143.045 210.51 144.458C209.617 144.535 208.718 144.603 207.809 144.653C207.251 144.668 206.696 144.677 206.143 144.681C206.03 144.681 205.918 144.679 205.805 144.68C205.354 144.681 204.905 144.68 204.459 144.673C204.381 144.672 204.304 144.669 204.227 144.668C194.772 144.495 186.212 142.595 178.608 138.985C178.604 138.983 178.6 138.981 178.597 138.979C177.352 138.388 176.134 137.75 174.942 137.065C174.724 136.94 174.506 136.813 174.29 136.685C173.984 136.505 173.679 136.325 173.377 136.138C172.909 135.848 172.444 135.551 171.984 135.246C171.756 135.095 171.53 134.939 171.304 134.785C170.932 134.531 170.562 134.271 170.195 134.007C170.03 133.888 169.863 133.771 169.699 133.65C169.19 133.275 168.687 132.89 168.19 132.494C168.036 132.373 167.884 132.249 167.731 132.125C167.268 131.751 166.81 131.368 166.356 130.978C166.289 130.921 166.222 130.866 166.155 130.808C165.643 130.361 165.138 129.901 164.638 129.433C164.514 129.317 164.391 129.201 164.269 129.084C163.763 128.602 163.262 128.114 162.769 127.611C157.015 121.871 152.277 115.102 148.685 107.492C145.09 99.8788 142.369 91.1128 140.599 81.444C140.469 80.6895 140.347 79.9398 140.233 79.195C139.438 73.9813 139.042 69.014 139.047 64.2933C139.052 58.9075 139.58 53.865 140.63 49.2021C140.595 50.0065 140.629 50.819 140.618 51.6394C140.615 51.8716 140.676 52.1097 140.676 52.3433V52.6003C140.676 53.4182 140.63 54.2434 140.653 55.0764C140.661 55.4075 140.643 55.7389 140.655 56.0723C140.669 56.4276 140.67 56.7838 140.688 57.1417C140.715 57.6993 140.741 58.2603 140.779 58.8245C140.798 59.1061 140.815 59.3887 140.837 59.6719C140.882 60.2687 140.933 60.8691 140.988 61.4731C141.011 61.7161 141.034 61.9593 141.059 62.2034C141.136 62.963 141.218 63.7261 141.313 64.4967C141.319 64.5445 141.326 64.5931 141.332 64.641C141.426 65.3947 141.531 66.1552 141.642 66.9194C141.672 67.1267 141.703 67.3342 141.734 67.542C141.856 68.352 141.985 69.1654 142.126 69.9871C142.462 71.8208 142.831 73.6218 143.235 75.3902C144.981 83.0517 147.353 90.0803 150.311 96.3445C153.735 103.6 158.186 110.105 163.549 115.697C163.906 116.07 164.268 116.438 164.634 116.803C165.14 117.321 165.656 117.824 166.176 118.319C166.285 118.423 166.394 118.527 166.504 118.63C167.014 119.108 167.531 119.576 168.053 120.033C168.141 120.11 168.231 120.185 168.319 120.261C168.798 120.674 169.282 121.078 169.772 121.473C169.865 121.548 169.957 121.625 170.05 121.699C170.58 122.121 171.116 122.532 171.659 122.932C171.797 123.034 171.936 123.135 172.075 123.236C172.595 123.613 173.119 123.983 173.65 124.341C173.748 124.407 173.846 124.471 173.944 124.536C174.432 124.861 174.926 125.177 175.424 125.484C175.614 125.602 175.804 125.72 175.995 125.835C176.511 126.147 177.032 126.45 177.557 126.745C177.783 126.872 178.012 126.993 178.24 127.117C178.592 127.307 178.946 127.494 179.302 127.677C179.625 127.842 179.949 128.006 180.274 128.166C180.686 128.367 181.101 128.564 181.518 128.756C181.857 128.911 182.198 129.063 182.542 129.212C182.757 129.305 182.974 129.396 183.191 129.487C183.854 129.765 184.523 130.031 185.198 130.285C185.329 130.334 185.46 130.384 185.592 130.433C186.924 130.922 188.282 131.364 189.665 131.759C189.699 131.769 189.734 131.778 189.768 131.788C192.109 132.45 194.487 132.974 196.89 133.355C197.028 133.377 197.167 133.4 197.305 133.421C197.573 133.463 197.837 133.512 198.107 133.55C198.282 133.574 198.463 133.591 198.639 133.614C199.18 133.686 199.724 133.752 200.271 133.813C200.569 133.845 200.87 133.872 201.171 133.901C201.673 133.949 202.177 133.992 202.685 134.03C202.887 134.045 203.088 134.062 203.291 134.075C204.011 134.123 204.738 134.158 205.469 134.185C205.643 134.191 205.817 134.168 205.992 134.173C206.762 134.197 207.536 134.184 208.318 134.184H208.32C209.064 134.184 209.825 134.202 210.596 134.181C211.379 134.137 212.149 134.095 212.914 134.032C214.485 133.904 216.023 133.746 217.503 133.538C226.592 132.263 234.3 129.434 240.413 125.123C243.377 123.036 246.035 120.545 248.31 117.723C248.528 117.453 248.74 117.176 248.952 116.899C248.968 116.879 248.983 116.86 248.998 116.839C249.229 116.536 249.455 116.227 249.678 115.915C249.727 115.847 249.777 115.78 249.826 115.711C250.024 115.431 250.216 115.145 250.408 114.859C250.472 114.764 250.538 114.67 250.601 114.574C250.85 114.195 251.094 113.811 251.331 113.423C251.561 113.051 251.787 112.676 252.007 112.296C252.072 112.184 252.135 112.071 252.199 111.958C252.353 111.689 252.506 111.418 252.655 111.144C252.727 111.011 252.798 110.877 252.869 110.743C253.008 110.482 253.146 110.22 253.279 109.957C253.347 109.824 253.414 109.69 253.481 109.556C253.549 109.417 253.62 109.281 253.688 109.142ZM257.429 91.4559C257.153 93.841 256.73 96.207 256.165 98.5406C256.098 98.8183 256.025 99.0936 255.954 99.369C255.821 99.8786 255.682 100.384 255.535 100.885C255.46 101.142 255.386 101.4 255.307 101.655C255.215 101.952 255.121 102.248 255.024 102.541C254.93 102.825 254.834 103.107 254.736 103.388C254.648 103.64 254.563 103.894 254.471 104.144C254.291 104.634 254.104 105.119 253.91 105.6C253.828 105.804 253.742 106.005 253.658 106.207C253.505 106.572 253.349 106.934 253.188 107.293C253.112 107.464 253.036 107.636 252.958 107.805C252.723 108.315 252.479 108.819 252.228 109.318C252.175 109.422 252.119 109.524 252.066 109.628C251.848 110.051 251.624 110.469 251.394 110.882C251.318 111.02 251.241 111.159 251.163 111.296C250.878 111.796 250.587 112.292 250.285 112.779C250.054 113.158 249.817 113.532 249.574 113.901C249.527 113.973 249.478 114.042 249.43 114.113C249.227 114.418 249.021 114.722 248.81 115.021C248.793 115.045 248.775 115.069 248.758 115.093C241.517 125.264 229.858 131.181 214.037 132.717C214.027 132.718 214.018 132.719 214.009 132.72C213.844 132.736 213.677 132.748 213.512 132.763C212.534 132.851 211.545 132.926 210.546 132.982C209.988 132.997 209.433 133.006 208.882 133.009C208.759 133.01 208.637 133.008 208.515 133.008C208.078 133.009 207.642 133.008 207.208 133.002C207.107 133 207.007 132.997 206.906 132.995C206.437 132.986 205.969 132.975 205.505 132.958C205.468 132.956 205.433 132.954 205.396 132.953C204.314 132.911 203.243 132.846 202.185 132.758C199.536 132.541 196.903 132.163 194.3 131.627C193.791 131.521 193.284 131.409 192.781 131.291C188.865 130.384 185.057 129.062 181.42 127.349C181.369 127.324 181.318 127.3 181.266 127.276C180.059 126.701 178.877 126.081 177.72 125.417C177.473 125.276 177.227 125.133 176.982 124.987C176.697 124.819 176.412 124.651 176.13 124.477C175.651 124.18 175.176 123.876 174.706 123.564C174.489 123.421 174.274 123.273 174.059 123.127C173.673 122.863 173.29 122.594 172.91 122.32C172.754 122.208 172.597 122.098 172.442 121.984C171.929 121.605 171.422 121.217 170.921 120.818C170.771 120.699 170.622 120.579 170.473 120.459C170.006 120.08 169.543 119.696 169.087 119.301C169.022 119.246 168.957 119.193 168.893 119.137C168.38 118.69 167.874 118.228 167.373 117.759C167.25 117.645 167.128 117.53 167.007 117.413C166.501 116.931 165.999 116.443 165.506 115.939C161.159 111.592 157.401 106.693 154.328 101.367C153.289 99.5728 152.32 97.7238 151.421 95.8203C147.827 88.2066 145.106 79.4408 143.335 69.7722C143.214 69.0721 143.103 68.3774 142.996 67.6855C142.963 67.4662 142.932 67.2488 142.899 67.0305C142.829 66.5535 142.761 66.0784 142.697 65.6052C142.663 65.3567 142.631 65.1089 142.599 64.8617C142.541 64.4088 142.486 63.958 142.435 63.5092C142.407 63.2698 142.378 63.0294 142.352 62.7912C142.292 62.2349 142.237 61.6819 142.187 61.1321C142.156 60.7969 142.129 60.464 142.101 60.131C142.07 59.7461 142.038 59.3616 142.012 58.9798C141.986 58.6153 141.965 58.2535 141.944 57.8918C141.929 57.6428 141.915 57.3943 141.903 57.1463C141.882 56.7298 141.864 56.3151 141.848 55.902C141.843 55.7647 141.839 55.6284 141.835 55.4917C141.416 42.2337 144.045 30.9154 149.7 21.7275C157.633 9.16315 170.943 2.2768 189.244 1.26071C190.035 1.23892 190.83 1.22794 191.608 1.22794C203.402 1.22794 213.799 3.75896 222.506 8.74725C231.717 14.1654 239.216 21.7565 244.794 31.3096C250.244 40.6438 254.093 51.6714 256.232 64.0862C257.971 74.1799 258.374 83.3884 257.429 91.4559Z" fill="#3D8E65"/>
<path d="M394.989 120.79L394.256 95.431C394.253 95.3271 394.224 95.2256 394.171 95.136L388.215 85.0741C388.211 85.0673 388.204 85.0629 388.2 85.0563C388.17 85.0082 388.133 84.9646 388.091 84.9268C388.087 84.9236 388.085 84.9196 388.081 84.9166C388.081 84.9164 388.081 84.9162 388.081 84.916C388.081 84.9158 388.08 84.9157 388.08 84.9156C388.036 84.8799 387.987 84.8506 387.934 84.8285C387.919 84.8219 387.904 84.8161 387.889 84.8107C387.836 84.7913 387.78 84.7792 387.724 84.7747C387.716 84.7743 387.709 84.7757 387.702 84.7755C387.666 84.7739 387.63 84.7754 387.595 84.7799L375.387 86.6354L373.32 19.2211C373.317 19.1175 373.288 19.0164 373.235 18.9271L367.28 8.86543C367.276 8.85864 367.269 8.85422 367.264 8.84763C367.234 8.79961 367.198 8.75608 367.156 8.71834C367.152 8.71514 367.149 8.71114 367.145 8.70794C367.145 8.70773 367.145 8.70753 367.145 8.70736C367.145 8.70718 367.145 8.70704 367.144 8.70695C367.1 8.67071 367.05 8.64109 366.997 8.619C366.983 8.61299 366.97 8.59452 366.956 8.58953C366.902 8.56333 366.845 8.54627 366.786 8.53906H366.776C366.736 8.54235 366.697 8.5486 366.659 8.55776L328.589 14.3508C328.501 14.3648 328.418 14.3974 328.344 14.4465C328.27 14.4956 328.208 14.56 328.161 14.6354L269.746 107.965C269.681 108.068 269.752 108.188 269.755 108.309L270.448 128.734V128.738C270.448 128.753 270.35 128.767 270.351 128.782C270.355 128.814 270.308 128.846 270.317 128.877C270.321 128.894 270.303 128.909 270.308 128.925C270.314 128.953 270.322 128.981 270.332 129.008C270.336 129.015 270.33 129.022 270.334 129.029L276.287 139.09C276.341 139.182 276.418 139.258 276.51 139.311C276.602 139.363 276.707 139.391 276.813 139.391C276.843 139.391 276.873 139.389 276.902 139.385L336.175 130.633L336.794 152.06C336.794 152.062 336.794 152.063 336.795 152.064C336.795 152.079 336.799 152.093 336.8 152.108C336.803 152.14 336.809 152.172 336.816 152.204C336.821 152.22 336.828 152.235 336.834 152.252C336.844 152.28 336.856 152.308 336.87 152.334C336.874 152.341 336.875 152.349 336.879 152.355L342.834 162.417C342.889 162.509 342.966 162.585 343.059 162.638C343.151 162.691 343.256 162.719 343.363 162.719C343.394 162.718 343.425 162.716 343.455 162.712L376.782 157.646C376.79 157.645 376.796 157.642 376.803 157.64C376.82 157.637 376.835 157.631 376.852 157.627C376.905 157.612 376.956 157.59 377.004 157.561C377.014 157.555 377.026 157.55 377.036 157.543C377.054 157.531 377.07 157.517 377.087 157.502C377.11 157.483 377.131 157.463 377.151 157.442C377.157 157.434 377.164 157.427 377.17 157.419C377.261 157.313 377.311 157.178 377.312 157.039C377.312 156.999 377.308 156.96 377.301 156.921L376.356 124.269L394.471 121.516C394.474 121.515 394.477 121.514 394.48 121.513C394.562 121.5 394.64 121.472 394.71 121.428C394.78 121.385 394.841 121.328 394.888 121.26C394.936 121.193 394.969 121.116 394.987 121.036C395.004 120.955 395.005 120.872 394.989 120.79ZM372.098 19.4166L374.16 86.6824L369.628 87.4922L367.433 11.5363L372.098 19.4166ZM277.13 138.11L271.848 129.187L324.425 121.195L335.852 119.458L336.139 129.396L277.13 138.11ZM337.377 130.144C337.413 130.066 337.431 129.981 337.431 129.895L337.056 118.726C337.055 118.702 337.052 118.678 337.047 118.655C337.044 118.636 337.044 118.617 337.04 118.598C337.035 118.58 337.027 118.563 337.021 118.545C337.014 118.522 337.006 118.499 336.997 118.477C336.986 118.457 336.973 118.437 336.959 118.417C336.949 118.401 336.941 118.384 336.929 118.369C336.904 118.338 336.877 118.309 336.846 118.284C336.843 118.281 336.841 118.278 336.839 118.275L336.837 118.274C336.788 118.234 336.732 118.202 336.672 118.18C336.661 118.176 336.65 118.17 336.638 118.167C336.58 118.147 336.52 118.137 336.459 118.135C336.454 118.135 336.45 118.133 336.445 118.133C336.414 118.133 336.384 118.135 336.353 118.14L271.45 128.005L270.885 108.461L329.052 15.5291L366.158 9.88951L368.422 88.2397C368.423 88.2837 368.429 88.3274 368.44 88.3702C368.442 88.3782 368.446 88.3854 368.448 88.3932C368.457 88.4272 368.469 88.4603 368.484 88.4921C368.492 88.5079 368.503 88.5219 368.512 88.5368C368.524 88.5592 368.538 88.5808 368.553 88.6014C368.568 88.6188 368.584 88.6354 368.601 88.6512C368.615 88.665 368.627 88.6806 368.642 88.6932C368.643 88.6938 368.643 88.6942 368.644 88.6948C368.645 88.6959 368.647 88.6971 368.648 88.6983C368.651 88.7011 368.655 88.702 368.659 88.7045C368.705 88.7399 368.756 88.7685 368.811 88.7895C368.822 88.7941 368.833 88.7993 368.845 88.8033C368.902 88.8219 368.962 88.8322 369.022 88.8336C369.026 88.8336 369.031 88.8359 369.035 88.8359C369.057 88.8351 369.078 88.8332 369.1 88.83C369.109 88.8291 369.118 88.8303 369.127 88.8289L387.093 86.0982L387.793 110.321L369.679 113.074C369.661 113.077 369.645 113.085 369.628 113.089C369.619 113.091 369.61 113.09 369.601 113.092C369.592 113.094 369.586 113.1 369.578 113.103C369.548 113.113 369.519 113.125 369.491 113.14C369.476 113.147 369.462 113.156 369.447 113.165C369.444 113.167 369.441 113.168 369.438 113.17C369.43 113.176 369.42 113.179 369.412 113.185C369.373 113.213 369.338 113.246 369.307 113.283C369.304 113.285 369.301 113.287 369.299 113.29C369.294 113.295 369.291 113.303 369.286 113.309C369.276 113.322 369.269 113.337 369.259 113.351C369.244 113.373 369.229 113.395 369.217 113.418C369.211 113.431 369.209 113.444 369.204 113.457C369.2 113.467 369.194 113.476 369.191 113.487C369.187 113.498 369.185 113.51 369.182 113.522C369.168 113.576 369.125 113.63 369.125 113.684C369.125 113.689 369.088 113.694 369.088 113.699V113.711L370.069 146.452L337.984 151.331L337.377 130.144ZM343.68 161.436L338.399 152.513L370.417 147.647L370.932 148.517L375.698 156.569L343.68 161.436ZM371.343 146.801L370.924 132.32L370.454 116.04L375.118 123.92L376.007 154.681L371.343 146.801ZM376.044 123.074L370.764 114.152L378.931 112.91L388.106 111.516L393.387 120.438L376.044 123.074ZM389.032 110.67L388.369 87.745L393.033 95.6251L393.696 118.55L389.032 110.67Z" fill="#3D8E65"/>
<path d="M335.261 56.5483C335.219 55.0663 335.227 53.5894 335.285 52.159C335.291 52.0198 335.249 51.8829 335.167 51.7706C335.085 51.6583 334.967 51.5773 334.832 51.5409C334.698 51.5045 334.555 51.5149 334.427 51.5703C334.3 51.6257 334.195 51.7229 334.129 51.846C333.53 52.9768 331.699 56.1651 330.228 58.7273C329.298 60.3464 328.495 61.7446 328.147 62.3724L304.433 99.186C304.404 99.2317 304.382 99.2809 304.366 99.3325C304.362 99.3451 304.359 99.3575 304.356 99.3703C304.344 99.4171 304.337 99.4652 304.336 99.5136C304.336 99.518 304.335 99.522 304.335 99.5264C304.337 99.5786 304.345 99.6304 304.359 99.6807C304.362 99.6925 304.366 99.7039 304.37 99.7155C304.386 99.765 304.409 99.8124 304.437 99.8563C304.437 99.8574 304.437 99.8585 304.438 99.8595L304.439 99.8604C304.466 99.8995 304.497 99.9354 304.531 99.9674C304.541 99.9765 304.552 99.9834 304.562 99.9918C304.579 100.007 304.597 100.021 304.616 100.035C304.623 100.039 304.631 100.04 304.638 100.045C304.67 100.063 304.705 100.079 304.74 100.091C304.757 100.097 304.772 100.156 304.789 100.16C304.84 100.174 304.892 100.233 304.946 100.233H304.791V100.167C304.791 100.167 304.943 100.147 304.979 100.14C312.143 98.8417 330.98 95.6769 335.663 94.9652C335.814 94.9426 335.951 94.867 336.05 94.7521C336.149 94.6371 336.204 94.4905 336.205 94.3386L335.379 60.9542L335.261 56.5483ZM306.229 98.6652L329.179 63.0375C329.181 63.0341 329.182 63.0305 329.184 63.0273L329.199 63.0037C329.564 62.349 330.365 60.954 331.293 59.3389C332.22 57.7243 333.22 55.9813 334.006 54.594C334.005 55.2536 334.015 55.9175 334.034 56.5825L334.161 60.9852L334.983 93.825C329.876 94.6194 313.894 97.3014 306.229 98.6652Z" fill="#3D8E65"/>
</g>
<defs>
<clipPath id="clip0">
<rect width="395" height="166.507" fill="white"/>
</clipPath>
</defs>
</svg>
