<svg width="9" height="16" viewBox="0 0 9 16" fill="none" xmlns="http://www.w3.org/2000/svg">
<path d="M7.46582 15.0459C7.61523 15.1953 7.80859 15.2832 8.03711 15.2832C8.49414 15.2832 8.83691 14.9404 8.83691 14.4834C8.83691 14.2637 8.74902 14.0615 8.6084 13.9121L2.20996 7.6543L8.6084 1.39648C8.74902 1.24707 8.83691 1.03613 8.83691 0.825195C8.83691 0.368164 8.49414 0.0166016 8.03711 0.0166016C7.80859 0.0166016 7.61523 0.104492 7.46582 0.253906L0.504883 7.06543C0.337891 7.20605 0.241211 7.42578 0.241211 7.6543C0.241211 7.87402 0.329102 8.07617 0.496094 8.24316L7.46582 15.0459Z" fill="#3D8E65"/>
</svg>
