<svg width="9" height="16" viewBox="0 0 9 16" fill="none" xmlns="http://www.w3.org/2000/svg">
<path d="M1.04102 15.292C1.26953 15.292 1.46289 15.2041 1.6123 15.0547L8.58203 8.24316C8.74902 8.07617 8.83691 7.87402 8.83691 7.6543C8.83691 7.42578 8.74902 7.21484 8.58203 7.06543L1.62109 0.262695C1.46289 0.104492 1.26953 0.0166016 1.04102 0.0166016C0.583984 0.0166016 0.241211 0.368164 0.241211 0.825195C0.241211 1.03613 0.329102 1.24707 0.469727 1.39648L6.86816 7.6543L0.469727 13.9121C0.329102 14.0615 0.241211 14.2637 0.241211 14.4834C0.241211 14.9404 0.583984 15.292 1.04102 15.292Z" fill="#3D8E65"/>
</svg>
