<?xml version="1.0" encoding="utf-8"?>
<!-- Generator: Adobe Illustrator 22.1.0, SVG Export Plug-In . SVG Version: 6.00 Build 0)  -->
<svg version="1.0" id="Layer_1" xmlns="http://www.w3.org/2000/svg" xmlns:xlink="http://www.w3.org/1999/xlink" x="0px" y="0px"
	 viewBox="0 0 150 140" style="enable-background:new 0 0 150 140;" xml:space="preserve">
<style type="text/css">
	.st0{fill:#A5C715;}
	.st1{fill:#FFFFFF;}
	.st2{fill:#1D1D1B;}
	.st3{fill:none;stroke:#1D1D1B;stroke-width:1.6287;stroke-linecap:round;stroke-miterlimit:10;}
	.st4{fill:none;stroke:#1D1D1B;stroke-width:1.6287;stroke-miterlimit:10;}
	.st5{fill:none;stroke:#1D1D1B;stroke-width:1.2605;stroke-linecap:round;stroke-miterlimit:10;}
	.st6{fill:none;stroke:#1D1D1B;stroke-width:1.2605;stroke-miterlimit:10;}
	.st7{fill:none;stroke:#1D1D1B;stroke-width:1.2591;stroke-linecap:round;stroke-miterlimit:10;}
	.st8{fill:none;stroke:#1D1D1B;stroke-width:1.2458;stroke-miterlimit:10;}
	.st9{fill:none;stroke:#1D1D1B;stroke-width:0.7019;stroke-miterlimit:10;}
	.st10{fill:#FFFFFF;stroke:#1D1D1B;stroke-width:1.4273;stroke-miterlimit:10;}
	.st11{fill:none;stroke:#1D1D1B;stroke-width:1.3648;stroke-miterlimit:10;}
	.st12{fill:none;stroke:#1D1D1B;stroke-width:1.4273;stroke-miterlimit:10;}
	.st13{fill:#FFFFFF;stroke:#1D1D1B;stroke-width:1.4273;stroke-linejoin:round;stroke-miterlimit:10;}
	.st14{fill:#FFFFFF;stroke:#1D1D1B;stroke-width:1.4273;stroke-linecap:round;stroke-linejoin:round;stroke-miterlimit:10;}
	.st15{fill:#FFFFFF;stroke:#1D1D1B;stroke-width:1.6;stroke-linecap:round;stroke-miterlimit:10;}
	.st16{fill:#FFFFFF;stroke:#1D1D1B;stroke-width:1.819;stroke-miterlimit:10;}
	.st17{fill:#FFFFFF;stroke:#1D1D1B;stroke-width:1.819;stroke-linecap:round;stroke-linejoin:round;stroke-miterlimit:10;}
	.st18{fill:none;stroke:#1D1D1B;stroke-width:1.819;stroke-linecap:round;stroke-linejoin:round;stroke-miterlimit:10;}
	.st19{fill:none;stroke:#1D1D1B;stroke-width:1.819;stroke-linejoin:round;stroke-miterlimit:10;}
	.st20{fill:none;stroke:#1D1D1B;stroke-width:1.819;stroke-miterlimit:10;}
	.st21{fill:none;stroke:#1D1D1B;stroke-width:1.4273;stroke-linecap:round;stroke-linejoin:round;stroke-miterlimit:10;}
	.st22{fill:none;stroke:#1D1D1B;stroke-width:1.4273;stroke-linecap:round;stroke-miterlimit:10;}
	.st23{fill:#A5C715;stroke:#1D1D1B;stroke-width:1.5;stroke-miterlimit:10;}
	.st24{fill:none;stroke:#1D1D1B;stroke-width:1.4273;stroke-linejoin:round;stroke-miterlimit:10;}
</style>
<g>
	<g>
		<path class="st0" d="M135.1,107H14.9c-2.1,0-3.8-1.7-3.8-3.8V36.1c0-2.1,1.7-3.8,3.8-3.8h120.3c2.1,0,3.8,1.7,3.8,3.8v67.1
			C138.9,105.3,137.2,107,135.1,107z M18.6,99.5h112.8V39.9H18.6V99.5z"/>
	</g>
	<g>
		<path class="st0" d="M70.2,75.7v4.2H81v6.4H70.2v6.5h-8.1v-6.5h-4.7v-6.4h4.7v-4.2h-4.7V69h4.7V48.7h12.7c4,0,7.3,0.4,9.8,1.1
			c3.1,0.9,5.4,2.4,7,4.5c1.6,2.1,2.4,4.6,2.4,7.7c0,4.3-1.7,7.7-5.2,10.1s-8.3,3.6-14.6,3.6H70.2z M70.2,69h4
			c4.1,0,7.1-0.6,9.1-1.9c1.6-1.2,2.5-2.9,2.5-5.2c0-1.4-0.3-2.6-0.9-3.4c-0.6-0.9-1.6-1.6-3.1-2.2c-1.5-0.5-3.8-0.8-7-0.8h-4.5V69z
			"/>
	</g>
</g>
</svg>
