<?xml version="1.0" encoding="utf-8"?>
<!-- Generator: Adobe Illustrator 22.1.0, SVG Export Plug-In . SVG Version: 6.00 Build 0)  -->
<svg version="1.0" id="Layer_1" xmlns="http://www.w3.org/2000/svg" xmlns:xlink="http://www.w3.org/1999/xlink" x="0px" y="0px"
	 viewBox="0 0 150 140" style="enable-background:new 0 0 150 140;" xml:space="preserve">
<style type="text/css">
	.st0{fill:#A5C715;}
	.st1{fill:#FFFFFF;}
	.st2{fill:#1D1D1B;}
	.st3{fill:none;stroke:#1D1D1B;stroke-width:1.6287;stroke-linecap:round;stroke-miterlimit:10;}
	.st4{fill:none;stroke:#1D1D1B;stroke-width:1.6287;stroke-miterlimit:10;}
	.st5{fill:none;stroke:#1D1D1B;stroke-width:1.2605;stroke-linecap:round;stroke-miterlimit:10;}
	.st6{fill:none;stroke:#1D1D1B;stroke-width:1.2605;stroke-miterlimit:10;}
	.st7{fill:none;stroke:#1D1D1B;stroke-width:1.2591;stroke-linecap:round;stroke-miterlimit:10;}
	.st8{fill:none;stroke:#1D1D1B;stroke-width:1.2458;stroke-miterlimit:10;}
	.st9{fill:none;stroke:#1D1D1B;stroke-width:0.7019;stroke-miterlimit:10;}
	.st10{fill:#FFFFFF;stroke:#1D1D1B;stroke-width:1.4273;stroke-miterlimit:10;}
	.st11{fill:none;stroke:#1D1D1B;stroke-width:1.3648;stroke-miterlimit:10;}
	.st12{fill:none;stroke:#1D1D1B;stroke-width:1.4273;stroke-miterlimit:10;}
	.st13{fill:#FFFFFF;stroke:#1D1D1B;stroke-width:1.4273;stroke-linejoin:round;stroke-miterlimit:10;}
	.st14{fill:#FFFFFF;stroke:#1D1D1B;stroke-width:1.4273;stroke-linecap:round;stroke-linejoin:round;stroke-miterlimit:10;}
	.st15{fill:#FFFFFF;stroke:#1D1D1B;stroke-width:1.6;stroke-linecap:round;stroke-miterlimit:10;}
	.st16{fill:#FFFFFF;stroke:#1D1D1B;stroke-width:1.819;stroke-miterlimit:10;}
	.st17{fill:#FFFFFF;stroke:#1D1D1B;stroke-width:1.819;stroke-linecap:round;stroke-linejoin:round;stroke-miterlimit:10;}
	.st18{fill:none;stroke:#1D1D1B;stroke-width:1.819;stroke-linecap:round;stroke-linejoin:round;stroke-miterlimit:10;}
	.st19{fill:none;stroke:#1D1D1B;stroke-width:1.819;stroke-linejoin:round;stroke-miterlimit:10;}
	.st20{fill:none;stroke:#1D1D1B;stroke-width:1.819;stroke-miterlimit:10;}
	.st21{fill:none;stroke:#1D1D1B;stroke-width:1.4273;stroke-linecap:round;stroke-linejoin:round;stroke-miterlimit:10;}
	.st22{fill:none;stroke:#1D1D1B;stroke-width:1.4273;stroke-linecap:round;stroke-miterlimit:10;}
	.st23{fill:#A5C715;stroke:#1D1D1B;stroke-width:1.5;stroke-miterlimit:10;}
	.st24{fill:none;stroke:#1D1D1B;stroke-width:1.4273;stroke-linejoin:round;stroke-miterlimit:10;}
</style>
<g>
	<g>
		<path class="st0" d="M107.6,115.5H44.3c-5.3,0-9.6-4.3-9.6-9.6V24.7c0-5.3,4.3-9.6,9.6-9.6h47.5c1,0,2,0.4,2.7,1.1l21.7,22.2
			c0.7,0.7,1.1,1.6,1.1,2.6v64.9C117.2,111.2,112.9,115.5,107.6,115.5z M44.3,22.7c-1.1,0-2.1,0.9-2.1,2.1v81.2
			c0,1.1,0.9,2.1,2.1,2.1h63.3c1.1,0,2.1-0.9,2.1-2.1V42.6L90.2,22.7H44.3z"/>
	</g>
	<g>
		<path class="st0" d="M77.6,48.5h-21c-2.1,0-3.8-1.7-3.8-3.8s1.7-3.8,3.8-3.8h21c2.1,0,3.8,1.7,3.8,3.8S79.6,48.5,77.6,48.5z"/>
	</g>
	<g>
		<path class="st0" d="M95.9,63.5H56.5c-2.1,0-3.8-1.7-3.8-3.8s1.7-3.8,3.8-3.8h39.4c2.1,0,3.8,1.7,3.8,3.8S98,63.5,95.9,63.5z"/>
	</g>
	<g>
		<path class="st0" d="M95.9,78.5H56.5c-2.1,0-3.8-1.7-3.8-3.8s1.7-3.8,3.8-3.8h39.4c2.1,0,3.8,1.7,3.8,3.8S98,78.5,95.9,78.5z"/>
	</g>
	<g>
		<polygon class="st1" points="32.1,100.2 27.8,121 39.4,116 50.8,121.3 45.2,100.2 		"/>
		<path class="st0" d="M50.8,124.2c-0.4,0-0.8-0.1-1.2-0.3l-10.3-4.8l-10.4,4.5c-1,0.4-2.1,0.3-3-0.4c-0.8-0.7-1.2-1.8-1-2.8
			l4.3-20.8c0.3-1.3,1.5-2.3,2.8-2.3h13c1.3,0,2.5,0.9,2.8,2.1l5.7,21.1c0.3,1.1-0.1,2.3-0.9,3C52.2,124,51.5,124.2,50.8,124.2z
			 M34.5,103.1l-2.7,13l6.4-2.8c0.8-0.3,1.6-0.3,2.4,0l5.8,2.7L43,103.1H34.5z"/>
	</g>
	<g>
		<circle class="st1" cx="38.5" cy="89.5" r="13"/>
		<path class="st0" d="M38.5,105.5c-8.8,0-15.9-7.2-15.9-15.9s7.2-15.9,15.9-15.9s15.9,7.2,15.9,15.9S47.3,105.5,38.5,105.5z
			 M38.5,79.4c-5.6,0-10.1,4.6-10.1,10.1s4.6,10.1,10.1,10.1s10.1-4.6,10.1-10.1S44.1,79.4,38.5,79.4z"/>
	</g>
	<g>
		<path class="st0" d="M111.2,44.8H91.8c-2.1,0-3.8-1.7-3.8-3.8V21.7c0-2.1,1.7-3.8,3.8-3.8s3.8,1.7,3.8,3.8v15.6h15.7
			c2.1,0,3.8,1.7,3.8,3.8S113.3,44.8,111.2,44.8z"/>
	</g>
</g>
</svg>
