<svg width="16" height="16" viewBox="0 0 16 16" fill="none" xmlns="http://www.w3.org/2000/svg">
<rect width="16" height="16" fill="black" fill-opacity="0"/>
<path d="M9.54512 8.00724L15.6775 1.91156C16.101 1.48785 16.1107 0.794502 15.6871 0.370789C15.2635 -0.052923 14.5704 -0.0625528 14.1468 0.36116L8.00481 6.45684L1.92061 0.32264C1.49702 -0.101072 0.803888 -0.110702 0.380304 0.31301C-0.04328 0.736723 -0.052907 1.43007 0.370677 1.85378L6.45488 7.99761L0.322542 14.0933C-0.101041 14.517 -0.110668 15.2104 0.312916 15.6341C0.524707 15.8459 0.803888 15.9519 1.08307 15.9519C1.36225 15.9519 1.64143 15.8459 1.85322 15.6341L7.99519 9.54801L14.089 15.6822C14.3008 15.8941 14.58 16 14.8592 16C15.1384 16 15.4175 15.8941 15.6293 15.6822C16.0529 15.2585 16.0625 14.5652 15.639 14.1414L9.54512 8.00724Z" fill="black"/>
</svg>
