<svg width="12" height="14" viewBox="0 0 12 14" fill="none" xmlns="http://www.w3.org/2000/svg">
<path d="M11.8478 4.75481L10.7177 0.735873C10.571 0.21468 10.0291 -0.102042 9.50992 0.0299459L5.50783 1.04843L5.33831 1.09039C4.98937 1.17909 4.66288 1.28357 4.49094 1.58504L0.10364 9.27776C-0.00222932 9.46182 -0.0279261 9.67863 0.030871 9.88753C0.0896683 10.0964 0.225833 10.2721 0.414256 10.3813L6.41017 13.8858C6.59784 13.9963 6.8162 14.0279 7.02431 13.975C7.23136 13.9223 7.40504 13.7911 7.50957 13.6063L11.8969 5.91357C12.0857 5.58407 11.977 5.20584 11.8732 4.84106L11.8478 4.75481ZM8.94229 3.64724C8.49665 3.76053 8.03294 3.4895 7.90703 3.04216C7.78112 2.59482 8.04053 2.13997 8.48617 2.02669C8.93181 1.9134 9.39553 2.18443 9.52144 2.63177C9.64734 3.07911 9.38794 3.53396 8.94229 3.64724Z" fill="#88BC37"/>
</svg>
