<svg width="124" height="24" viewBox="0 0 124 24" fill="none" xmlns="http://www.w3.org/2000/svg">
<path d="M13.3901 9.80838H4.13027V0.333599H-0.0332031V23.7075H4.14071V13.9656H13.3901V23.6971H17.5515V0.333599H13.3901V9.80838ZM116.694 15.1844C118.42 14.6327 119.892 13.483 120.845 11.9423C121.798 10.4015 122.17 8.5711 121.893 6.78069C121.616 4.99028 120.709 3.35759 119.335 2.17673C117.961 0.995871 116.21 0.344467 114.399 0.339859H105.552V23.7138H109.714V13.2999L118.385 23.6971H123.79L116.694 15.1844ZM109.714 11.3778V4.49082H114.349C115.262 4.49082 116.138 4.85361 116.784 5.49939C117.429 6.14516 117.792 7.02103 117.792 7.9343C117.792 8.84756 117.429 9.72342 116.784 10.3692C116.138 11.015 115.262 11.3778 114.349 11.3778H109.714ZM66.1817 14.8442L56.0788 0.264729H52.7605V23.6386H56.9219V8.9736L67.075 23.6261H70.3431V0.264729H66.1817V14.8442ZM35.155 0.0122072C32.7841 0.0122072 30.4664 0.715261 28.4951 2.03246C26.5237 3.34966 24.9873 5.22185 24.08 7.41228C23.1727 9.6027 22.9353 12.013 23.3978 14.3383C23.8604 16.6637 25.0021 18.7996 26.6785 20.4761C28.355 22.1526 30.491 23.2943 32.8163 23.7568C35.1417 24.2194 37.5519 23.982 39.7424 23.0747C41.9328 22.1674 43.805 20.6309 45.1222 18.6596C46.4394 16.6882 47.1424 14.3706 47.1424 11.9997C47.1424 8.82041 45.8795 5.77135 43.6314 3.52326C41.3833 1.27517 38.3342 0.0122072 35.155 0.0122072ZM35.155 19.8258C33.6076 19.8237 32.0955 19.363 30.8099 18.5018C29.5243 17.6406 28.5228 16.4176 27.932 14.9874C27.3413 13.5572 27.1878 11.9839 27.491 10.4665C27.7941 8.94908 28.5403 7.55558 29.6352 6.46213C30.7301 5.36867 32.1246 4.62435 33.6424 4.32322C35.1603 4.02209 36.7333 4.17768 38.1627 4.77033C39.5921 5.36297 40.8138 6.36607 41.6733 7.65283C42.5328 8.9396 42.9915 10.4523 42.9915 11.9997C42.9915 13.0283 42.7887 14.0468 42.3948 14.997C42.0008 15.9472 41.4234 16.8104 40.6956 17.5373C39.9678 18.2641 39.1038 18.8404 38.1531 19.233C37.2024 19.6257 36.1836 19.8271 35.155 19.8258ZM87.9487 0.0122072C85.5777 0.0117944 83.2598 0.714497 81.2882 2.03145C79.3166 3.3484 77.7798 5.22044 76.8722 7.41083C75.9646 9.60122 75.7269 12.0116 76.1892 14.337C76.6515 16.6625 77.793 18.7987 79.4694 20.4754C81.1458 22.1521 83.2818 23.294 85.6072 23.7567C87.9326 24.2194 90.343 23.9821 92.5335 23.0749C94.7241 22.1676 96.5964 20.6312 97.9137 18.6598C99.231 16.6884 99.9341 14.3707 99.9341 11.9997C99.9341 8.82077 98.6714 5.77202 96.4238 3.524C94.1761 1.27597 91.1276 0.0127606 87.9487 0.0122072ZM87.9487 19.8258C86.4007 19.8262 84.8875 19.3675 83.6002 18.5079C82.3129 17.6482 81.3095 16.426 80.7168 14.996C80.1242 13.5661 79.9689 11.9924 80.2706 10.4742C80.5724 8.95592 81.3176 7.56125 82.412 6.46655C83.5064 5.37184 84.9009 4.62627 86.419 4.32413C87.9372 4.02199 89.5109 4.17685 90.941 4.76912C92.3712 5.3614 93.5936 6.36449 94.4536 7.65153C95.3136 8.93857 95.7727 10.4517 95.7727 11.9997C95.7727 14.0749 94.9484 16.0652 93.4812 17.5328C92.014 19.0004 90.0239 19.8252 87.9487 19.8258Z" fill="url(#paint0_linear)"/>
<defs>
<linearGradient id="paint0_linear" x1="47.7915" y1="-17.3221" x2="72.4176" y2="43.1997" gradientUnits="userSpaceOnUse">
<stop stop-color="#FF00D0"/>
<stop offset="0.25" stop-color="#4E73FF"/>
<stop offset="0.6" stop-color="#00B1FF"/>
<stop offset="1" stop-color="#00FFFF"/>
</linearGradient>
</defs>
</svg>
