<svg xmlns="http://www.w3.org/2000/svg" viewBox="3 0 150 28">
	<style>
		.st1{fill:#1e1e1c}
	</style>
	<path d="M47.2 17L31.6 1.3c-.4-.4-1-.2-1.2.3l-6 21.4c-.1.4.3.7.7.6l7.5-3.7c.4-.2 1 0 1.1.5l1.5 5.9c.2.6.7.9 1.3.8l2.2-.6c.5-.1.8-.7.7-1.2l-1.5-6c-.1-.5.2-.9.7-1l8.3-.4c.4-.1.6-.6.3-.9z" fill="#83bb26"/>
	<path class="st1" d="M23.7 18.5h-2V7.8L14 17.6 6.2 7.8v10.7H4.1V4H6l8 10.2L22 4h1.7v14.5z"/>
	<path d="M31.6 4l12.3 12.4-2.6.1-2.7-2.8-8.3 2.2-1 3.7-2.4 1.4 4.7-17zm5.4 8.2l-4.4-4.4-1.7 6 6.1-1.6z" fill="#fefffd"/>
	<path class="st1" d="M64.7 4v14.5h-2.4L50.8 6.7v11.8h-2V4h2.3l11.6 12V4h2zM68.1 11.2c0-1.1.2-2.1.6-3a7.76 7.76 0 0 1 7.1-4.7 8.03 8.03 0 0 1 5.5 2.2c.7.7 1.3 1.6 1.7 2.5.4.9.6 1.9.6 3s-.2 2.1-.6 3c-.4.9-1 1.8-1.7 2.5s-1.5 1.3-2.5 1.6c-1 .4-2 .6-3 .6s-2-.2-3-.6a7.76 7.76 0 0 1-4.1-4.1c-.4-.9-.6-1.9-.6-3zm2.1 0c0 .8.1 1.5.5 2.2a5.67 5.67 0 0 0 5.2 3.5c.8 0 1.6-.2 2.2-.5a5.67 5.67 0 0 0 3.5-5.2c0-.8-.1-1.5-.5-2.2a5.67 5.67 0 0 0-5.2-3.5c-.8 0-1.5.2-2.2.5-.4.1-.7.3-1 .5-.3.2-.6.4-.8.7-.2.3-.5.5-.7.8-.2.3-.4.6-.5 1-.4.7-.5 1.5-.5 2.2zM106.8 18.5h-2V7.8L97 17.6l-7.8-9.7v10.7h-2.1V4H89l8 10.2L105 4h1.7v14.5zM114.3 17.1a2.04 2.04 0 0 1-2.1 2.1 2.04 2.04 0 0 1-2.1-2.1 2.04 2.04 0 0 1 2.1-2.1 2.04 2.04 0 0 1 2.1 2.1zM131.6 18.5l-4.1-4.3h-7.4v4.3h-2V4h10.4c.4 0 .8.1 1.3.3.5.1 1 .4 1.6.6.5.3 1.1.7 1.6 1.2.7.8 1 1.8 1 3s-.3 2.2-1 2.9c-.3.4-.6.7-1 .9-.2.1-.4.2-.5.3l-.6.3c-.1.1-.3.1-.4.2-.1 0-.2.1-.4.1l4.4 4.7h-2.9zm-3.2-6.4c.1 0 .1-.1.2-.1h.5c.1 0 .2 0 .3-.1.2 0 .4-.1.6-.1.2-.1.4-.1.6-.3.4-.2.7-.4.9-.7.1-.2.3-.4.4-.7.1-.2.2-.5.2-1 0-.7-.2-1.2-.5-1.6-.4-.4-.8-.7-1.2-1-.3-.1-.5-.2-.8-.3-.2-.1-.5-.1-.7-.2-.5.1-.8 0-.9 0h-7.8v6h8.2zM150.5 4v8.5c0 .2 0 .5-.1.8 0 .3-.1.5-.2.8l-.3.9c-.1.3-.2.6-.4.9-.3.6-.7 1.2-1.3 1.6-.1.1-.2.2-.3.2-.1.1-.2.1-.3.2l-1.2.6c-.5.1-.9.2-1.3.2-.5.1-.9.1-1.4.1-1.2 0-2.1-.1-2.6-.2s-.9-.2-.9-.3a3 3 0 0 1-1.1-.6c-.4-.2-.7-.5-.9-.9-.1-.2-.2-.4-.3-.5-.1-.2-.2-.4-.3-.5-.2-.4-.3-.7-.4-1.1-.1-.4-.2-.7-.2-1.1-.1-.7-.1-1.2-.1-1.5V4h2v8.9c0 .4.1.7.2 1.2.1.4.2.8.4 1.1.2.3.4.6.7.8.1 0 .1.1.2.1s.1.1.2.1c.1.1.4.2.6.2.2.1.5.1.9.1s.9.1 1.4.1c.5 0 1 0 1.5-.1l1.2-.3c.4-.2.7-.4 1-.7l.1-.1.1-.1c.1-.1.1-.3.2-.4.1-.1.1-.3.2-.4l.3-.9c.1-.3.1-.6.2-.9.1-.6.1-1 .1-1.3V4h2.1z"/>
</svg>