<svg width="100" height="17" viewBox="0 0 100 17" fill="none" xmlns="http://www.w3.org/2000/svg">
<path d="M14.6249 0.880108V16.5097H12.5708V4.29625L7.45759 12.8033H7.18969L2.0765 4.31862V16.5097H0V0.880108H2.34453L7.32364 9.14143L12.2805 0.880108H14.6249ZM33.2781 16.5097L28.4776 3.35851L23.6994 16.5097H21.4889L27.3165 0.880108H29.661L35.4886 16.5097H33.2781ZM52.0653 0.880108H54.1418V16.5097H52.4672L44.4291 4.83217V16.5097H42.3526V0.880108H44.0272L52.0653 12.5353V0.880108H52.0653ZM75.508 14.4332C73.9807 15.9492 71.916 16.8 69.7641 16.8C67.6121 16.8 65.5474 15.9492 64.0202 14.4332C63.2604 13.6859 62.6608 12.7917 62.2577 11.8052C61.8547 10.8187 61.6567 9.76044 61.6757 8.69493C61.6545 7.62745 61.8515 6.56689 62.2546 5.57823C62.6578 4.58958 63.2586 3.69367 64.0202 2.94541C65.5509 1.43603 67.6143 0.589844 69.7641 0.589844C71.9138 0.589844 73.9772 1.43603 75.508 2.94541C76.2725 3.69204 76.876 4.5874 77.2811 5.57626C77.6862 6.56512 77.8844 7.6265 77.8635 8.69493C77.8823 9.76139 77.683 10.8205 77.278 11.8072C76.8729 12.7939 76.2706 13.6875 75.508 14.4332ZM65.4603 13.0154C66.6089 14.139 68.1518 14.7681 69.7585 14.7681C71.3652 14.7681 72.9081 14.139 74.0567 13.0154C74.6225 12.4499 75.0676 11.7753 75.365 11.0327C75.6624 10.29 75.806 9.4947 75.787 8.69493C75.8075 7.89164 75.6647 7.09256 75.3672 6.34608C75.0698 5.5996 74.6239 4.92127 74.0567 4.35216C72.9081 3.22854 71.3653 2.59934 69.7585 2.59934C68.1517 2.59934 66.6089 3.22854 65.4603 4.35216C64.893 4.92127 64.4472 5.5996 64.1497 6.34608C63.8523 7.09255 63.7095 7.89164 63.7299 8.69493C63.7109 9.49471 63.8545 10.29 64.152 11.0327C64.4494 11.7753 64.8945 12.4499 65.4603 13.0154ZM100 0.880108V16.5097H97.9459V4.29625L92.8327 12.8033H92.5648L87.4516 4.31862V16.5097H85.3751V0.880108H87.7196L92.6988 9.14143L97.6556 0.880108H100Z" fill="#1D1D1B"/>
<path fill-rule="evenodd" clip-rule="evenodd" d="M28.4755 11L26.4741 16.5095H30.4867L28.4755 11Z" fill="#389464"/>
</svg>
