<?xml version="1.0" encoding="utf-8"?>
<!-- Generator: Adobe Illustrator 22.1.0, SVG Export Plug-In . SVG Version: 6.00 Build 0)  -->
<svg version="1.0" id="Layer_1" xmlns="http://www.w3.org/2000/svg" xmlns:xlink="http://www.w3.org/1999/xlink" x="0px" y="0px"
	 viewBox="0 0 155.2 28.4" style="enable-background:new 0 0 155.2 28.4;" xml:space="preserve">
<style type="text/css">
	.st0{fill:#83BB26;}
	.st1{fill:#1E1E1C;}
	.st2{fill:#FEFFFD;}
</style>
<g>
	<path class="st0" d="M47.2,17L31.6,1.3c-0.4-0.4-1-0.2-1.2,0.3L24.4,23c-0.1,0.4,0.3,0.7,0.7,0.6l7.5-3.7c0.4-0.2,1,0,1.1,0.5
		l1.5,5.9c0.2,0.6,0.7,0.9,1.3,0.8l2.2-0.6c0.5-0.1,0.8-0.7,0.7-1.2l-1.5-6c-0.1-0.5,0.2-0.9,0.7-1l8.3-0.4
		C47.3,17.8,47.5,17.3,47.2,17z"/>
	<path class="st1" d="M23.7,18.5h-2V7.8L14,17.6L6.2,7.8v10.7H4.1V4h1.9l8,10.2L22,4h1.7V18.5z"/>
	<path class="st2" d="M31.6,4l12.3,12.4l-2.6,0.1l-2.7-2.8l-8.3,2.2l-1,3.7l-2.4,1.4L31.6,4z M37,12.2l-4.4-4.4l-1.7,6L37,12.2z"/>
	<path class="st1" d="M64.7,4v14.5h-2.4L50.8,6.7v11.8h-2V4h2.3l11.6,12V4H64.7z"/>
	<path class="st1" d="M68.1,11.2c0-1.1,0.2-2.1,0.6-3c0.4-0.9,0.9-1.8,1.7-2.5c0.7-0.7,1.5-1.2,2.4-1.6c1-0.4,1.9-0.6,3-0.6
		c1,0,2,0.2,3,0.6c0.9,0.4,1.8,0.9,2.5,1.6c0.7,0.7,1.3,1.6,1.7,2.5c0.4,0.9,0.6,1.9,0.6,3c0,1.1-0.2,2.1-0.6,3
		c-0.4,0.9-1,1.8-1.7,2.5c-0.7,0.7-1.5,1.3-2.5,1.6c-1,0.4-2,0.6-3,0.6c-1,0-2-0.2-3-0.6c-0.9-0.4-1.7-0.9-2.4-1.6
		c-0.7-0.7-1.3-1.5-1.7-2.5C68.3,13.3,68.1,12.3,68.1,11.2z M70.2,11.2c0,0.8,0.1,1.5,0.5,2.2c0.3,0.7,0.7,1.3,1.2,1.8
		c0.5,0.5,1.1,0.9,1.8,1.2c0.7,0.3,1.4,0.5,2.2,0.5c0.8,0,1.6-0.2,2.2-0.5c0.7-0.3,1.3-0.7,1.8-1.2c0.5-0.5,0.9-1.1,1.2-1.8
		c0.3-0.7,0.5-1.4,0.5-2.2c0-0.8-0.1-1.5-0.5-2.2c-0.3-0.7-0.7-1.3-1.2-1.8c-0.5-0.5-1.1-0.9-1.8-1.2c-0.7-0.3-1.4-0.5-2.2-0.5
		c-0.8,0-1.5,0.2-2.2,0.5c-0.4,0.1-0.7,0.3-1,0.5c-0.3,0.2-0.6,0.4-0.8,0.7c-0.2,0.3-0.5,0.5-0.7,0.8c-0.2,0.3-0.4,0.6-0.5,1
		C70.3,9.7,70.2,10.5,70.2,11.2z"/>
	<path class="st1" d="M106.8,18.5h-2V7.8L97,17.6l-7.8-9.7v10.7h-2.1V4H89l8,10.2l8-10.2h1.7V18.5z"/>
	<path class="st1" d="M114.3,17.1c0,0.6-0.2,1.1-0.6,1.5c-0.4,0.4-0.9,0.6-1.5,0.6c-0.6,0-1.1-0.2-1.5-0.6c-0.4-0.4-0.6-0.9-0.6-1.5
		c0-0.6,0.2-1.1,0.6-1.5c0.4-0.4,0.9-0.6,1.5-0.6c0.6,0,1.1,0.2,1.5,0.6C114.1,16,114.3,16.5,114.3,17.1z"/>
	<path class="st1" d="M131.6,18.5l-4.1-4.3h-7.4v4.3h-2V4h9.8c0,0,0.1,0,0.2,0s0.2,0,0.4,0c0.4,0,0.8,0.1,1.3,0.3
		c0.5,0.1,1,0.4,1.6,0.6c0.5,0.3,1.1,0.7,1.6,1.2c0.7,0.8,1,1.8,1,3c0,1.2-0.3,2.2-1,2.9c-0.3,0.4-0.6,0.7-1,0.9
		c-0.2,0.1-0.4,0.2-0.5,0.3c-0.2,0.1-0.4,0.2-0.6,0.3c-0.1,0.1-0.3,0.1-0.4,0.2c-0.1,0-0.2,0.1-0.4,0.1l4.4,4.7H133H131.6z
		 M128.4,12.1c0.1,0,0.1-0.1,0.2-0.1c0.1,0,0.1,0,0.2,0c0.1,0,0.2,0,0.3,0c0.1,0,0.2,0,0.3-0.1c0.2,0,0.4-0.1,0.6-0.1
		c0.2-0.1,0.4-0.1,0.6-0.3c0.4-0.2,0.7-0.4,0.9-0.7c0.1-0.2,0.3-0.4,0.4-0.7c0.1-0.2,0.2-0.5,0.2-1c0-0.7-0.2-1.2-0.5-1.6
		c-0.4-0.4-0.8-0.7-1.2-1c-0.3-0.1-0.5-0.2-0.8-0.3c-0.2-0.1-0.5-0.1-0.7-0.2C128.4,6.1,128.1,6,128,6h-7.8v6h7.8h0.1h0H128.4z"/>
	<path class="st1" d="M150.5,4v7.4c0,0.1,0,0.3,0,0.5c0,0.2,0,0.4,0,0.6c0,0.2,0,0.5-0.1,0.8c0,0.3-0.1,0.5-0.2,0.8
		c-0.1,0.3-0.2,0.6-0.3,0.9c-0.1,0.3-0.2,0.6-0.4,0.9c-0.3,0.6-0.7,1.2-1.3,1.6c-0.1,0.1-0.2,0.2-0.3,0.2c-0.1,0.1-0.2,0.1-0.3,0.2
		c-0.4,0.2-0.8,0.4-1.2,0.6c-0.5,0.1-0.9,0.2-1.3,0.2c-0.5,0.1-0.9,0.1-1.4,0.1c-1.2,0-2.1-0.1-2.6-0.2c-0.5-0.1-0.9-0.2-0.9-0.3
		c-0.4-0.1-0.7-0.3-1.1-0.6c-0.4-0.2-0.7-0.5-0.9-0.9c-0.1-0.2-0.2-0.4-0.3-0.5c-0.1-0.2-0.2-0.4-0.3-0.5c-0.2-0.4-0.3-0.7-0.4-1.1
		c-0.1-0.4-0.2-0.7-0.2-1.1c-0.1-0.7-0.1-1.2-0.1-1.5V4h2v8c0,0.1,0,0.3,0,0.4c0,0.1,0,0.3,0,0.5c0,0.4,0.1,0.7,0.2,1.2
		c0.1,0.4,0.2,0.8,0.4,1.1c0.2,0.3,0.4,0.6,0.7,0.8c0.1,0,0.1,0.1,0.2,0.1c0.1,0,0.1,0.1,0.2,0.1c0.1,0.1,0.4,0.2,0.6,0.2
		c0.2,0.1,0.5,0.1,0.9,0.1c0.4,0,0.9,0.1,1.4,0.1c0.5,0,1,0,1.5-0.1c0.4-0.1,0.8-0.2,1.2-0.3c0.4-0.2,0.7-0.4,1-0.7
		c0,0,0.1-0.1,0.1-0.1c0,0,0.1-0.1,0.1-0.1c0.1-0.1,0.1-0.3,0.2-0.4c0.1-0.1,0.1-0.3,0.2-0.4c0.1-0.3,0.2-0.6,0.3-0.9
		c0.1-0.3,0.1-0.6,0.2-0.9c0.1-0.6,0.1-1,0.1-1.3V4H150.5z"/>
</g>
</svg>
