<svg width="11" height="10" viewBox="0 0 11 10" fill="none" xmlns="http://www.w3.org/2000/svg">
<rect width="11" height="10" fill="black" fill-opacity="0"/>
<rect width="11" height="10" fill="black" fill-opacity="0"/>
<path d="M7.85714 10H3.14286C1.375 10 0 8.75 0 7.14286V2.85714C0 1.25 1.375 0 3.14286 0H7.85714C9.625 0 11 1.25 11 2.85714V7.14286C11 8.75 9.625 10 7.85714 10ZM3.14286 0.892857C1.96429 0.892857 0.982143 1.78571 0.982143 2.85714V7.14286C0.982143 8.21429 1.96429 9.10714 3.14286 9.10714H7.85714C9.03571 9.10714 10.0179 8.21429 10.0179 7.14286V2.85714C10.0179 1.78571 9.03571 0.892857 7.85714 0.892857H3.14286Z" fill="black"/>
<rect width="5.5" height="5" fill="black" fill-opacity="0" transform="translate(2.74976 2.5)"/>
<path d="M5.49976 7.5C3.92833 7.5 2.74976 6.42857 2.74976 5C2.74976 3.57143 3.92833 2.5 5.49976 2.5C7.07118 2.5 8.24976 3.57143 8.24976 5C8.24976 6.42857 7.07118 7.5 5.49976 7.5ZM5.49976 3.21429C4.51761 3.21429 3.53547 3.92857 3.53547 5C3.53547 5.89286 4.32118 6.78572 5.49976 6.78572C6.4819 6.78572 7.46404 6.07143 7.46404 5C7.26761 4.10714 6.4819 3.21429 5.49976 3.21429Z" fill="black"/>
<rect width="1.17857" height="1.11893" fill="black" fill-opacity="0" transform="translate(7.85718 1.73816)"/>
<path d="M9.03575 2.32137C9.03575 2.67851 8.64289 2.85709 8.44646 2.85709C8.05361 2.85709 7.85718 2.49994 7.85718 2.32137C7.85718 1.96423 8.25003 1.78566 8.44646 1.78566C8.83932 1.60709 9.03575 1.96423 9.03575 2.32137Z" fill="black"/>
</svg>
