<svg width="12" height="11" viewBox="0 0 12 11" fill="none" xmlns="http://www.w3.org/2000/svg">
<rect width="12" height="11" fill="black" fill-opacity="0"/>
<path d="M6.58065 9.03571C6.3871 9.03571 6.19355 9.23214 6.19355 9.23214C6 9.42857 5.6129 9.625 5.41935 9.82143C5.22581 9.82143 5.22581 10.0179 5.03226 10.0179C4.83871 10.4107 4.64516 10.4107 4.45161 10.2143C4.06452 10.2143 3.87097 10.0179 3.87097 9.82143C3.67742 9.42857 3.67742 9.23214 3.48387 9.03571C3.29032 8.44643 3.09677 7.85714 2.90323 7.26786C2.32258 7.07143 1.74194 6.67857 0.967742 6.48214C0.774194 6.48214 0.580645 6.28571 0.580645 6.28571C0.387097 6.08929 0.193548 5.89286 0 5.5C0 5.10714 0 4.91071 0.193548 4.71429C0.387097 4.51786 0.580645 4.32143 0.774194 4.32143C0.967742 4.125 1.35484 3.92857 1.74194 3.92857C2.32258 3.53571 3.09677 3.33929 3.87097 2.94643C4.45161 2.75 5.03226 2.55357 5.6129 2.16071C6.19355 1.96429 6.77419 1.57143 7.54839 1.375C8.12903 1.17857 8.51613 0.982143 9.09677 0.785714C9.67742 0.589286 10.0645 0.392857 10.6452 0.196429C10.6452 0 10.8387 0 11.0323 0C11.4194 0 11.6129 0.196429 11.8065 0.589286C12 0.785714 12 0.982143 12 1.17857C12 1.375 12 1.76786 11.8065 1.96429C11.8065 2.16071 11.6129 2.55357 11.6129 2.94643C11.6129 3.14286 11.4194 3.53571 11.4194 3.92857C11.4194 4.32143 11.2258 4.51786 11.2258 4.91071C11.2258 5.30357 11.0323 5.5 11.0323 5.89286C11.0323 6.28571 10.8387 6.48214 10.8387 6.875C10.8387 7.26786 10.6452 7.66071 10.6452 7.85714C10.6452 8.25 10.4516 8.64286 10.4516 9.03571C10.4516 9.42857 10.2581 9.625 10.2581 10.0179C10.2581 10.2143 10.2581 10.2143 10.2581 10.4107C10.0645 10.6071 9.67742 10.8036 9.29032 11C8.90323 11 8.70968 11 8.32258 10.8036C8.12903 10.4107 7.93548 10.4107 7.93548 10.2143C7.54839 9.82143 7.35484 9.625 6.96774 9.42857C6.96774 9.23214 6.77419 9.03571 6.58065 9.03571ZM9.09677 9.625C9.67742 6.875 10.2581 4.125 10.6452 1.375C7.54839 2.55357 4.64516 3.92857 1.54839 5.30357C2.12903 5.5 2.90323 5.89286 3.48387 6.08929C4.06452 5.89286 4.45161 5.69643 4.83871 5.5C5.6129 5.10714 6.19355 4.71429 6.96774 4.32143C7.54839 3.92857 8.12903 3.73214 8.70968 3.33929H8.90323C8.90323 3.33929 9.09677 3.33929 9.09677 3.53571C9.09677 3.53571 9.09677 3.73214 8.90323 3.73214C8.51613 3.73214 8.12903 4.125 7.74194 4.51786C7.16129 5.10714 6.77419 5.5 6.19355 6.08929C6 6.48214 5.6129 6.67857 5.41935 6.875C5.41935 6.875 5.41935 6.875 5.41935 7.07143C5.22581 7.46429 5.22581 7.85714 5.03226 8.25C5.03226 8.44643 5.03226 8.64286 4.83871 8.83929C5.41935 8.25 6 7.85714 6.58065 7.26786C7.35484 8.05357 8.32258 8.83929 9.09677 9.625Z" fill="black"/>
</svg>
