<svg width="26" height="23" viewBox="0 0 26 23" fill="none" xmlns="http://www.w3.org/2000/svg">
<path d="M17.4883 7.22656C18.8008 7.22656 19.9258 6.42969 20.418 5.30469H24.1211C24.7891 5.30469 25.3398 4.71875 25.3398 4.03906C25.3398 3.33594 24.7891 2.76172 24.1211 2.76172H20.418C19.9258 1.625 18.8008 0.828125 17.4883 0.828125C16.1758 0.828125 15.0391 1.625 14.5469 2.76172H1.89062C1.19922 2.76172 0.648438 3.34766 0.648438 4.03906C0.648438 4.70703 1.19922 5.30469 1.89062 5.30469H14.5586C15.0508 6.42969 16.1758 7.22656 17.4883 7.22656ZM17.4883 5.52734C16.6562 5.52734 15.9883 4.85938 15.9883 4.02734C15.9883 3.17188 16.6562 2.52734 17.4883 2.52734C18.332 2.52734 18.9883 3.17188 18.9883 4.02734C18.9883 4.85938 18.332 5.52734 17.4883 5.52734ZM1.85547 10.1914C1.19922 10.1914 0.648438 10.7656 0.648438 11.457C0.648438 12.1367 1.19922 12.7344 1.85547 12.7344H5.69922C6.19141 13.8594 7.32812 14.6562 8.64062 14.6562C9.94141 14.6562 11.0781 13.8594 11.5703 12.7344H24.0859C24.7891 12.7344 25.3398 12.1484 25.3398 11.457C25.3398 10.7656 24.7891 10.1914 24.0859 10.1914H11.5703C11.0781 9.06641 9.95312 8.26953 8.64062 8.26953C7.32812 8.26953 6.20312 9.06641 5.71094 10.1914H1.85547ZM8.64062 12.9688C7.80859 12.9688 7.14062 12.2891 7.14062 11.457C7.14062 10.6133 7.80859 9.95703 8.64062 9.95703C9.49609 9.95703 10.1406 10.6133 10.1406 11.457C10.1406 12.2891 9.49609 12.9688 8.64062 12.9688ZM17.4883 22.0859C18.8008 22.0859 19.9258 21.2891 20.418 20.1523H24.1211C24.7891 20.1523 25.3398 19.5781 25.3398 18.8867C25.3398 18.1836 24.7891 17.6211 24.1211 17.6211H20.418C19.9258 16.4844 18.8008 15.6875 17.4883 15.6875C16.1758 15.6875 15.0508 16.4844 14.5469 17.6211H1.89062C1.19922 17.6211 0.648438 18.1953 0.648438 18.8867C0.648438 19.5664 1.19922 20.1523 1.89062 20.1523H14.5469C15.0391 21.2891 16.1758 22.0859 17.4883 22.0859ZM17.4883 20.3867C16.6562 20.3867 15.9883 19.7188 15.9883 18.8867C15.9883 18.043 16.6562 17.3867 17.4883 17.3867C18.332 17.3867 18.9883 18.043 18.9883 18.8867C18.9883 19.7188 18.332 20.3867 17.4883 20.3867Z" fill="#3D8E65"/>
</svg>
