<svg width="149" height="149" viewBox="0 0 149 149" fill="none" xmlns="http://www.w3.org/2000/svg">
<path d="M144.344 111.75H46.5625V107.094C46.5625 104.533 44.4672 102.438 41.9062 102.438H32.5938C30.0328 102.438 27.9375 104.533 27.9375 107.094V111.75H4.65625C2.09531 111.75 0 113.845 0 116.406V125.719C0 128.28 2.09531 130.375 4.65625 130.375H27.9375V135.031C27.9375 137.592 30.0328 139.688 32.5938 139.688H41.9062C44.4672 139.688 46.5625 137.592 46.5625 135.031V130.375H144.344C146.905 130.375 149 128.28 149 125.719V116.406C149 113.845 146.905 111.75 144.344 111.75ZM144.344 65.1875H121.062V60.5312C121.062 57.9703 118.967 55.875 116.406 55.875H107.094C104.533 55.875 102.438 57.9703 102.438 60.5312V65.1875H4.65625C2.09531 65.1875 0 67.2828 0 69.8438V79.1562C0 81.7172 2.09531 83.8125 4.65625 83.8125H102.438V88.4688C102.438 91.0297 104.533 93.125 107.094 93.125H116.406C118.967 93.125 121.062 91.0297 121.062 88.4688V83.8125H144.344C146.905 83.8125 149 81.7172 149 79.1562V69.8438C149 67.2828 146.905 65.1875 144.344 65.1875ZM144.344 18.625H83.8125V13.9688C83.8125 11.4078 81.7172 9.3125 79.1562 9.3125H69.8438C67.2828 9.3125 65.1875 11.4078 65.1875 13.9688V18.625H4.65625C2.09531 18.625 0 20.7203 0 23.2812V32.5938C0 35.1547 2.09531 37.25 4.65625 37.25H65.1875V41.9062C65.1875 44.4672 67.2828 46.5625 69.8438 46.5625H79.1562C81.7172 46.5625 83.8125 44.4672 83.8125 41.9062V37.25H144.344C146.905 37.25 149 35.1547 149 32.5938V23.2812C149 20.7203 146.905 18.625 144.344 18.625Z" fill="#79B700"/>
</svg>
