<svg width="22" height="18" viewBox="0 0 22 18" fill="none" xmlns="http://www.w3.org/2000/svg">
<path d="M7.93848 13.6465H18.1953C18.5381 13.6465 18.8369 13.3652 18.8369 12.9873C18.8369 12.6094 18.5381 12.3281 18.1953 12.3281H8.08789C7.58691 12.3281 7.2793 11.9766 7.2002 11.4404L7.05957 10.5176H18.2129C19.4961 10.5176 20.1553 9.72656 20.3398 8.46973L21.043 3.82031C21.0605 3.70605 21.0781 3.56543 21.0781 3.48633C21.0781 3.06445 20.7617 2.77441 20.2783 2.77441H5.92578L5.75879 1.6582C5.6709 0.981445 5.4248 0.638672 4.52832 0.638672H1.44336C1.0918 0.638672 0.792969 0.946289 0.792969 1.29785C0.792969 1.6582 1.0918 1.96582 1.44336 1.96582H4.41406L5.82031 11.6162C6.00488 12.8643 6.66406 13.6465 7.93848 13.6465ZM19.584 4.10156L18.96 8.31152C18.8896 8.85645 18.5996 9.19043 18.0811 9.19043L6.86621 9.19922L6.11914 4.10156H19.584ZM8.63281 17.918C9.42383 17.918 10.0566 17.2939 10.0566 16.4941C10.0566 15.7031 9.42383 15.0703 8.63281 15.0703C7.83301 15.0703 7.2002 15.7031 7.2002 16.4941C7.2002 17.2939 7.83301 17.918 8.63281 17.918ZM16.8506 17.918C17.6504 17.918 18.2832 17.2939 18.2832 16.4941C18.2832 15.7031 17.6504 15.0703 16.8506 15.0703C16.0596 15.0703 15.418 15.7031 15.418 16.4941C15.418 17.2939 16.0596 17.918 16.8506 17.918Z" fill="black"/>
</svg>
