<svg width="26" height="18" viewBox="0 0 26 18" fill="none" xmlns="http://www.w3.org/2000/svg">
<path d="M21.8 1L4.2 1M16.2 10.2632C16.2 12.1235 14.7673 13.6316 13 13.6316C11.2327 13.6316 9.8 12.1235 9.8 10.2632C9.8 8.40283 11.2327 6.89474 13 6.89474C14.7673 6.89474 16.2 8.40283 16.2 10.2632ZM23 3.90059L3 3.90058C1.89543 3.90058 1 4.79601 1 5.90058L1 15C1 16.1046 1.89543 17 3 17L23 17C24.1046 17 25 16.1046 25 15L25 5.90059C25 4.79602 24.1046 3.90059 23 3.90059Z" stroke="#73737E" stroke-width="1.5"/>
</svg>
