<svg width="30" height="18" viewBox="0 0 30 18" fill="none" xmlns="http://www.w3.org/2000/svg">
<path d="M18.7484 1.88806H10.8789V15.7659H18.7484V1.88806Z" fill="#FF5F00"/>
<path d="M11.3803 8.82847C11.3778 6.11959 12.6444 3.56024 14.8154 1.88833C10.9106 -1.12454 5.25712 -0.457737 2.18678 3.37393C-0.883563 7.20559 -0.20404 12.7533 3.70072 15.7662C6.96342 18.2814 11.5527 18.2814 14.8154 15.7662C12.6444 14.0943 11.3778 11.5349 11.3803 8.82847Z" fill="#EB001B"/>
<path d="M29.3687 8.82819C29.3687 13.7017 25.3415 17.6535 20.375 17.6535C18.3589 17.6535 16.4003 16.9892 14.8164 15.7659C18.7212 12.753 19.4007 7.20531 16.3303 3.37365C15.8882 2.82206 15.3785 2.32196 14.8164 1.88805C18.7212 -1.12482 24.3747 -0.460468 27.445 3.3712C28.6917 4.92544 29.3687 6.8474 29.3687 8.82574V8.82819Z" fill="#F79E1B"/>
</svg>
