<svg width="44" height="13" viewBox="0 0 44 13" fill="none" xmlns="http://www.w3.org/2000/svg">
<path fill-rule="evenodd" clip-rule="evenodd" d="M11.9653 2.37319e-07V0.00544718C11.96 0.00544718 10.2844 2.07785e-07 9.8376 1.63953C9.42801 3.14289 8.27371 7.29346 8.24179 7.40785H7.92263C7.92263 7.40785 6.74173 3.16468 6.32682 1.63408C5.88 -0.00544676 4.19908 2.37319e-07 4.19908 2.37319e-07H0.369141V12.4735H4.19908V5.06566H4.35866H4.51824L6.75237 12.4735H9.41205L11.6462 5.07111H11.9653V12.4735H15.7953V2.37319e-07H11.9653Z" fill="#4DB45E"/>
<path fill-rule="evenodd" clip-rule="evenodd" d="M25.9543 0C25.9543 0 24.8319 0.103492 24.3053 1.30727L21.5925 7.40785H21.2733V0H17.4434V12.4735H21.0605C21.0605 12.4735 22.2361 12.3646 22.7627 11.1662L25.4224 5.06566H25.7416V12.4735H29.5715V0H25.9543Z" fill="#4DB45E"/>
<path fill-rule="evenodd" clip-rule="evenodd" d="M31.2734 5.66486V12.4735H35.1034V8.49727H39.2525C41.0611 8.49727 42.593 7.31528 43.1622 5.66486H31.2734Z" fill="#4DB45E"/>
<path fill-rule="evenodd" clip-rule="evenodd" d="M39.2526 0H30.7363C31.1619 2.37487 32.9013 4.2813 35.1514 4.90225C35.6621 5.04387 36.1993 5.12013 36.7525 5.12013H43.3166C43.3751 4.83689 43.4017 4.5482 43.4017 4.24862C43.4017 1.90098 41.5453 0 39.2526 0Z" fill="url(#paint0_linear)"/>
<defs>
<linearGradient id="paint0_linear" x1="30.7374" y1="2.56007" x2="43.4017" y2="2.56007" gradientUnits="userSpaceOnUse">
<stop offset="0.3" stop-color="#00B4E6"/>
<stop offset="1" stop-color="#088CCB"/>
</linearGradient>
</defs>
</svg>
