<svg width="34" height="11" viewBox="0 0 34 11" fill="none" xmlns="http://www.w3.org/2000/svg">
<path d="M14.4152 10.6544H11.7207L13.406 0.189697H16.1004L14.4152 10.6544Z" fill="#00579F"/>
<path d="M24.1824 0.445526C23.6509 0.233787 22.808 0 21.7657 0C19.1047 0 17.2309 1.42491 17.2194 3.46211C17.1973 4.96515 18.561 5.79997 19.581 6.30113C20.6234 6.81324 20.9778 7.1475 20.9778 7.60397C20.9672 8.30504 20.1354 8.6282 19.3596 8.6282C18.2839 8.6282 17.7074 8.46159 16.8315 8.07155L16.4767 7.90435L16.0996 10.2535C16.7316 10.5426 17.8959 10.7992 19.1047 10.8104C21.932 10.8104 23.7727 9.40753 23.7945 7.23658C23.8052 6.0453 23.0851 5.1325 21.5327 4.3866C20.5903 3.90778 20.0131 3.58492 20.0131 3.09501C20.0242 2.64963 20.5013 2.19345 21.5651 2.19345C22.4411 2.17111 23.0847 2.38255 23.5723 2.59414L23.816 2.70526L24.1824 0.445526Z" fill="#00579F"/>
<path d="M27.7626 6.94716C27.9845 6.34597 28.8384 4.01921 28.8384 4.01921C28.8272 4.04155 29.0598 3.40692 29.1929 3.01733L29.3812 3.91903C29.3812 3.91903 29.8915 6.42395 30.0023 6.94716C29.5812 6.94716 28.2948 6.94716 27.7626 6.94716ZM31.0887 0.189697H29.0044C28.3617 0.189697 27.8734 0.378798 27.5961 1.05796L23.5938 10.6543H26.421C26.421 10.6543 26.8865 9.3627 26.9865 9.08453C27.2967 9.08453 30.0471 9.08453 30.4461 9.08453C30.5234 9.45193 30.7676 10.6543 30.7676 10.6543H33.2624L31.0887 0.189697Z" fill="#00579F"/>
<path d="M9.46893 0.189697L6.83011 7.32565L6.54175 5.8784C6.05389 4.20845 4.52385 2.3941 2.81641 1.49195L5.23347 10.6433H8.08285L12.3182 0.189697H9.46893Z" fill="#00579F"/>
<path d="M4.37957 0.189697H0.044351L0 0.401141C3.38174 1.26955 5.6214 3.36283 6.54157 5.87884L5.59915 1.06936C5.44399 0.400993 4.96718 0.211744 4.37957 0.189697Z" fill="#FAA61A"/>
</svg>
