<svg width="20" height="25" viewBox="0 0 20 25" fill="none" xmlns="http://www.w3.org/2000/svg">
<path d="M0.402344 12.3749C0.402344 10.9738 0.520797 10.0848 3.44505 7.91952C5.86655 6.12644 13.6266 0 13.6266 0V10.2275H19.5284V24.9471H2.24605C1.23242 24.9471 0.402344 24.1236 0.402344 23.1181V12.3749Z" fill="#F5CA44"/>
<path d="M13.6278 10.2275V16.1531L2.78345 23.4824L16.4951 19.0566V10.2275H13.6278Z" fill="#BE9E34"/>
<path d="M8.6713 9.9208C9.30516 9.17092 10.232 8.9063 10.7402 9.32968C11.2483 9.75306 11.1471 10.7039 10.5132 11.4538C9.87934 12.2036 8.95251 12.4674 8.44434 12.044C7.93526 11.6215 8.03744 10.6707 8.6713 9.9208Z" fill="black"/>
</svg>
