<svg width="20" height="25" viewBox="0 0 20 25" fill="none" xmlns="http://www.w3.org/2000/svg">
<path d="M0.402344 12.3749C0.402344 10.9738 0.520797 10.0848 3.44505 7.91952C5.86655 6.12644 13.6266 0 13.6266 0V10.2275H19.5284V24.9471H2.24605C1.23242 24.9471 0.402344 24.1236 0.402344 23.1181V12.3749Z" fill="#F5CA44"/>
<path d="M13.6275 10.2274V16.1529L2.7832 23.4822L16.4948 19.0565V10.2274H13.6275Z" fill="#BE9E34"/>
<path d="M8.67203 9.92074C9.30589 9.17085 10.2327 8.90624 10.7409 9.32962C11.2491 9.753 11.1478 10.7038 10.5139 11.4537C9.88007 12.2036 8.95324 12.4673 8.44507 12.0439C7.936 11.6214 8.03817 10.6706 8.67203 9.92074Z" fill="black"/>
</svg>
