<?xml version="1.0" standalone="no"?>
<!DOCTYPE svg PUBLIC "-//W3C//DTD SVG 20010904//EN"
 "http://www.w3.org/TR/2001/REC-SVG-20010904/DTD/svg10.dtd">
<svg version="1.0" xmlns="http://www.w3.org/2000/svg"
 width="768.000000pt" height="768.000000pt" viewBox="0 0 768.000000 768.000000"
 preserveAspectRatio="xMidYMid meet">
<metadata>
Created by potrace 1.11, written by Peter Selinger 2001-2013
</metadata>
<g transform="translate(0.000000,768.000000) scale(0.100000,-0.100000)"
fill="#000000" stroke="none">
<path d="M3295 7652 c-18 -2 -42 -48 -60 -112 -2 -6 -5 -13 -46 -120 -15 -41
-31 -87 -35 -103 -3 -15 -10 -30 -15 -33 -5 -3 -9 -12 -9 -21 0 -8 -6 -29 -14
-46 -19 -43 -96 -248 -101 -269 -2 -9 -10 -29 -18 -45 -8 -15 -17 -40 -21 -55
-3 -15 -11 -40 -18 -55 -13 -32 -29 -75 -87 -233 -23 -63 -46 -124 -51 -135
-10 -22 -120 -314 -124 -330 -2 -5 -7 -21 -13 -35 -16 -41 -55 -144 -58 -155
-1 -5 -6 -19 -10 -30 -23 -57 -47 -122 -51 -135 -2 -8 -26 -73 -53 -145 -27
-71 -84 -222 -126 -335 -42 -113 -79 -212 -82 -220 -3 -8 -7 -17 -8 -20 -1 -3
-5 -14 -9 -25 -4 -11 -17 -45 -28 -75 -11 -30 -24 -64 -28 -75 -5 -11 -27 -70
-49 -130 -36 -100 -45 -126 -72 -190 -8 -20 -34 -91 -91 -250 -15 -44 -32 -89
-37 -100 -5 -11 -31 -78 -57 -150 -26 -71 -52 -143 -59 -160 -7 -16 -25 -64
-39 -105 -15 -41 -32 -84 -36 -95 -5 -11 -20 -51 -34 -90 -14 -38 -41 -113
-61 -165 -20 -52 -46 -124 -59 -160 -39 -109 -336 -904 -345 -925 -5 -11 -14
-36 -21 -55 -7 -19 -19 -50 -27 -69 -8 -18 -16 -39 -17 -45 -3 -18 -17 -59
-31 -91 -16 -37 -27 -67 -31 -80 -1 -5 -8 -23 -15 -40 -7 -16 -13 -33 -13 -37
-1 -3 -4 -10 -8 -14 -5 -4 -8 -14 -8 -22 0 -8 -6 -28 -14 -45 -19 -44 -28 -69
-32 -88 -2 -8 -10 -29 -19 -45 -8 -16 -15 -36 -15 -45 0 -9 -3 -19 -7 -23 -5
-4 -8 -11 -9 -14 0 -4 -6 -20 -12 -35 -7 -16 -12 -31 -12 -34 0 -3 -6 -19 -14
-36 -23 -53 -71 -192 -68 -199 1 -5 -3 -8 -8 -8 -6 0 -10 -6 -10 -12 0 -7 -30
-91 -66 -188 -36 -96 -78 -209 -93 -250 -16 -41 -32 -84 -36 -95 -5 -11 -9
-22 -10 -25 -1 -3 -4 -12 -7 -20 -10 -25 -150 -401 -173 -465 -12 -33 -26 -68
-30 -77 -7 -17 22 -18 524 -18 495 0 531 1 540 18 5 9 9 21 9 25 0 4 12 38 25
75 14 37 51 137 82 222 31 85 61 169 68 185 6 17 12 35 13 40 1 6 19 53 39
105 20 52 38 102 40 110 2 8 23 65 45 125 22 61 42 117 44 125 4 17 33 94 47
125 7 18 35 93 109 302 12 34 21 65 20 69 -1 4 2 10 7 13 4 3 18 35 30 71 12
36 47 135 78 220 31 85 57 160 58 165 1 6 4 12 7 15 4 4 41 104 54 145 2 6 7
21 13 35 6 14 20 52 31 85 12 33 42 116 67 185 26 69 48 130 49 135 2 6 6 17
9 25 8 18 67 181 71 195 2 6 8 23 14 38 7 16 12 31 12 34 0 4 12 35 26 71 14
35 27 72 29 81 2 9 27 77 55 151 28 74 53 142 55 150 2 8 14 42 26 75 13 33
24 62 24 65 1 3 5 14 9 25 16 42 47 126 106 290 33 94 64 177 67 185 3 8 7 17
8 20 1 3 4 12 8 20 3 8 13 38 22 65 10 28 21 59 26 70 5 11 13 34 18 50 5 17
28 80 51 140 22 61 42 115 44 120 2 6 5 17 8 25 3 8 13 35 21 60 9 25 22 59
28 75 7 17 13 32 13 35 2 10 48 135 61 165 7 17 20 55 30 85 10 30 21 60 25
65 5 6 9 15 9 20 1 14 22 78 30 90 3 6 6 15 7 20 2 6 18 53 37 105 19 52 49
136 67 185 17 50 36 99 41 110 5 11 27 72 49 135 22 63 44 124 49 135 19 42
183 501 184 513 0 6 4 12 9 12 5 0 10 -6 13 -12 7 -24 87 -243 95 -263 4 -11
13 -36 20 -55 7 -19 16 -44 20 -55 5 -11 39 -103 76 -205 36 -102 80 -221 96
-265 16 -44 33 -91 38 -105 5 -14 22 -61 38 -105 16 -44 51 -138 76 -210 26
-71 55 -152 66 -180 22 -60 85 -231 110 -300 10 -27 22 -59 26 -70 4 -11 8
-22 8 -25 1 -3 4 -9 7 -15 4 -5 17 -41 29 -80 13 -38 32 -90 42 -115 11 -25
22 -54 24 -65 2 -11 10 -36 18 -55 8 -19 24 -62 36 -95 50 -140 62 -171 71
-187 5 -10 9 -26 9 -36 0 -10 3 -22 7 -25 3 -4 14 -28 23 -54 10 -27 100 -273
200 -548 100 -275 200 -547 221 -605 20 -58 63 -175 94 -260 31 -85 81 -222
112 -305 30 -82 60 -166 68 -185 15 -38 90 -246 107 -295 5 -16 14 -39 18 -50
17 -42 42 -114 42 -122 0 -4 4 -16 10 -27 10 -18 245 -656 253 -686 2 -8 29
-82 60 -165 56 -150 84 -225 110 -300 8 -22 25 -69 38 -105 l24 -65 533 -3
c424 -2 531 0 527 10 -38 96 -45 117 -40 122 4 3 1 6 -5 6 -7 0 -12 5 -12 12
0 6 -22 70 -49 142 -27 72 -84 223 -125 336 -42 113 -79 212 -83 220 -3 8 -7
17 -8 20 0 3 -11 32 -24 65 -13 33 -24 65 -26 70 -3 13 -15 45 -26 70 -5 11
-18 47 -29 80 -12 33 -25 69 -30 80 -12 25 -53 137 -56 150 -1 6 -27 75 -57
155 -31 80 -92 244 -137 365 -44 121 -87 236 -95 255 -8 19 -51 134 -95 255
-45 121 -91 245 -103 275 -12 30 -22 57 -22 60 0 4 -42 116 -90 240 -25 66
-28 75 -27 83 1 4 -3 7 -10 7 -6 0 -9 3 -5 6 3 3 -6 36 -20 72 -33 87 -73 194
-77 207 -1 6 -10 27 -19 49 -9 21 -17 42 -17 46 0 6 -26 77 -50 135 -5 11 -68
180 -140 375 -72 195 -135 364 -139 375 -20 50 -374 999 -433 1160 -22 61 -44
119 -49 130 -4 11 -18 47 -29 80 -12 33 -25 69 -30 80 -4 11 -15 38 -23 60
-27 68 -359 959 -361 970 -2 6 -8 21 -13 35 -6 14 -29 77 -53 140 -36 99 -53
144 -95 255 -5 11 -9 25 -11 30 -1 6 -15 42 -29 80 -15 39 -32 85 -39 104
l-12 34 -545 1 c-299 1 -553 0 -564 -2z"/>
<path d="M3820 2766 c0 -8 -14 -50 -31 -93 -17 -43 -31 -82 -32 -88 -3 -13
-46 -134 -58 -160 -4 -11 -47 -128 -94 -260 -75 -210 -98 -273 -131 -360 -4
-11 -8 -24 -10 -30 -2 -5 -62 -172 -134 -370 -73 -198 -188 -515 -256 -705
-69 -190 -129 -354 -134 -365 -14 -32 -60 -168 -60 -177 0 -4 432 -8 960 -8
l959 0 -15 43 c-8 23 -18 51 -23 62 -5 11 -23 61 -41 110 -35 98 -55 152 -96
260 -14 38 -27 74 -28 80 -1 5 -7 24 -13 40 -11 30 -19 53 -22 67 -1 4 -13 33
-26 63 -14 31 -25 64 -25 73 0 10 -4 22 -9 28 -5 5 -97 254 -206 554 -108 300
-203 559 -211 577 -8 17 -14 36 -14 42 0 6 -4 19 -10 29 -5 9 -30 76 -56 147
-25 72 -60 166 -76 210 -17 44 -36 98 -44 120 -31 92 -42 119 -53 123 -6 2
-11 -3 -11 -12z"/>
</g>
</svg>
